<svg width="24" height="22" viewBox="0 0 24 22" fill="none" xmlns="http://www.w3.org/2000/svg">
<path d="M9.64174 4.62101C10.2419 4.36931 10.4936 3.65296 10.2226 3.07213L9.27388 1.07796C9.00283 0.516683 8.34456 0.264798 7.76373 0.516683C6.11805 1.21368 4.70471 2.12364 3.58177 3.22721C2.20715 4.5242 1.27782 6.01499 0.774437 7.66067C0.271053 9.32591 0 11.5909 0 14.4757V20.4195C0 21.0584 0.522745 21.5812 1.16166 21.5812H8.7705C9.40941 21.5812 9.93216 21.0584 9.93216 20.4195V12.8107C9.93216 12.1716 9.40941 11.649 8.7705 11.649H5.13065C5.16937 9.69338 5.63403 8.12533 6.48591 6.94412C7.1829 5.99583 8.22839 5.22139 9.64174 4.62101Z" fill="#EEEEEE"/>
<path d="M23.3106 4.62109C23.9108 4.3694 24.1623 3.65304 23.8914 3.07222L22.9428 1.0976C22.6717 0.536128 22.0134 0.284436 21.4326 0.536128C19.8063 1.23312 18.4121 2.14309 17.27 3.2273C15.8952 4.54384 14.9467 6.03463 14.4431 7.68031C13.9397 9.30644 13.6882 11.5719 13.6882 14.476V20.4198C13.6882 21.0587 14.211 21.5815 14.8499 21.5815H22.4587C23.0976 21.5815 23.6204 21.0587 23.6204 20.4198V12.811C23.6204 12.1719 23.0976 11.6493 22.4587 11.6493H18.7995C18.8382 9.69365 19.3031 8.12561 20.1548 6.9444C20.8518 5.99591 21.8973 5.22147 23.3106 4.62109Z" fill="#EEEEEE"/>
</svg>
