<svg width="122" height="77" viewBox="0 0 122 77" fill="none" xmlns="http://www.w3.org/2000/svg">
<path d="M52.2051 1.07585H68.2564L42.7692 75.9754H25.4359L0 1.07585H16.0513L30.1538 45.6467C30.9402 48.2766 31.7436 51.3504 32.5641 54.8683C33.4188 58.352 33.9487 60.7769 34.1538 62.143C34.5299 59.0009 35.812 53.5021 38 45.6467L52.2051 1.07585Z" fill="#F9B127"/>
<path d="M122 55.1757C122 61.9381 119.556 67.2661 114.667 71.1597C109.812 75.0532 103.043 77 94.359 77C86.359 77 79.2821 75.4972 73.1282 72.4917V57.7372C78.188 59.9914 82.4615 61.5795 85.9487 62.5017C89.4701 63.4238 92.6838 63.8849 95.5897 63.8849C99.0769 63.8849 101.744 63.2189 103.59 61.8869C105.47 60.5549 106.41 58.574 106.41 55.9441C106.41 54.4755 106 53.1776 105.179 52.0506C104.359 50.8893 103.145 49.7793 101.538 48.7206C99.9658 47.6618 96.735 45.9712 91.8462 43.6487C87.265 41.497 83.8291 39.4307 81.5385 37.4498C79.2479 35.4688 77.4188 33.1635 76.0513 30.5336C74.6838 27.9037 74 24.8299 74 21.312C74 14.6862 76.2393 9.47771 80.7179 5.68663C85.2308 1.89554 91.453 0 99.3846 0C103.282 0 106.991 0.461078 110.513 1.38323C114.068 2.30539 117.778 3.60324 121.641 5.27678L116.513 17.6234C112.513 15.984 109.197 14.8399 106.564 14.191C103.966 13.542 101.402 13.2176 98.8718 13.2176C95.8633 13.2176 93.5556 13.9177 91.9487 15.318C90.3419 16.7183 89.5385 18.5456 89.5385 20.7997C89.5385 22.2 89.8633 23.4296 90.5128 24.4884C91.1624 25.513 92.188 26.5205 93.5897 27.511C95.0256 28.4673 98.3932 30.2091 103.692 32.7365C110.701 36.0836 115.504 39.4478 118.103 42.829C120.701 46.1761 122 50.2916 122 55.1757Z" fill="#F9B127"/>
</svg>
