<svg xmlns="http://www.w3.org/2000/svg" width="50" height="50" viewBox="-3 -3 22 22" id="icon"><path d="M13.648.27c-.632-.44-1.326-.28-1.608.12-.172.245-1.953 2.915-2.153 3.242a.96.96 0 0 0-.13.506c0 .243.07.514.21.778.136.257.58 1.034.798 1.416-.236.335-.842 1.123-2.088 2.366-1.238 1.234-2.035 1.844-2.373 2.08a77.354 77.354 0 0 0-1.42-.794C4.4 9.73 3.916 9.7 3.59 9.907 3.282 10.1.624 11.87.37 12.053c-.238.172-.366.48-.366.814 0 .265.08.544.25.787.016.023 1.69 2.37 2.66 2.338 2.726-.086 5.93-2.728 8.137-4.927 2.208-2.2 4.857-5.394 4.944-8.124v-.02c0-.956-2.323-2.634-2.346-2.65zm-3.304 10.09C7.43 13.263 4.8 14.907 2.932 14.994c-.354-.126-1.26-1.04-1.89-1.91a.396.396 0 0 1-.066-.258c.408-.28 2.694-1.785 3.12-2.06a.74.74 0 0 1 .323.1c.174.092.68.376 1.388.778l.552.313.52-.363c.386-.27 1.227-.916 2.505-2.19 1.284-1.28 1.93-2.116 2.2-2.5l.364-.518-.316-.55a69.192 69.192 0 0 1-.78-1.386.7.7 0 0 1-.097-.313v-.013c.24-.382 1.79-2.71 2.074-3.12.04-.008.128 0 .236.074.88.633 1.796 1.53 1.928 1.882-.09 1.872-1.737 4.496-4.65 7.4z"/></svg>