<svg xmlns="http://www.w3.org/2000/svg" xmlns:xlink="http://www.w3.org/1999/xlink" width="16" height="16">
    <symbol viewBox="0 0 32 20" id="behance">
        <path d="M20.448 3.337h8.474V.91h-8.474v2.427zm2.007 5.298c-.54.55-.88 1.294-1.02 2.233h6.59c-.068-1.003-.41-1.76-1.016-2.28-.615-.52-1.37-.777-2.272-.777-.98 0-1.743.275-2.283.825zm5.72-3.26c1.022.45 1.863 1.162 2.525 2.135.604.858.992 1.852 1.168 2.983.104.66.145 1.618.128 2.864H21.342c.064 1.446.568 2.46 1.53 3.042.584.36 1.286.543 2.11.543.868 0 1.577-.22 2.12-.66.3-.24.563-.57.79-.994h3.903c-.103.853-.578 1.723-1.417 2.607-1.31 1.4-3.144 2.103-5.5 2.103-1.948 0-3.666-.59-5.15-1.774-1.493-1.183-2.234-3.11-2.234-5.775 0-2.5.672-4.417 2.013-5.75 1.345-1.332 3.086-2.002 5.23-2.002 1.272 0 2.418.226 3.438.677zM3.942 10.92v5.203h4.8c.86 0 1.53-.116 2.005-.344.867-.428 1.3-1.237 1.3-2.436 0-1.017-.418-1.713-1.26-2.094-.47-.21-1.13-.323-1.976-.33H3.943zm0-7.533v4.305h4.81c.855 0 1.553-.162 2.09-.485.535-.323.804-.894.804-1.71 0-.912-.353-1.512-1.06-1.805-.614-.202-1.393-.305-2.34-.305H3.942zm10.74-1.308c.603.83.906 1.82.906 2.976 0 1.19-.303 2.15-.914 2.873-.343.404-.845.775-1.51 1.11 1.01.363 1.77.937 2.287 1.722.512.783.77 1.737.77 2.858 0 1.157-.293 2.194-.882 3.11a5.42 5.42 0 0 1-1.4 1.536c-.63.477-1.374.802-2.233.98-.86.177-1.79.262-2.794.262H0V0h9.556c2.412.035 4.12.728 5.125 2.08z"/>
    </symbol>

    <symbol viewBox="0 0 32 32" id="Skype">
        <path d="M31.08 19.397c.23-1.042.352-2.122.352-3.23 0-8.31-6.832-15.05-15.263-15.05-.89 0-1.76.077-2.61.222A8.894 8.894 0 0 0 8.852 0C3.962 0 0 3.906 0 8.728c0 1.61.444 3.116 1.215 4.415-.2.975-.308 1.988-.308 3.023 0 8.313 6.833 15.05 15.262 15.05.955 0 1.888-.088 2.795-.253A8.914 8.914 0 0 0 23.15 32c4.888 0 8.85-3.908 8.85-8.727 0-1.393-.33-2.708-.92-3.876zm-7.082 3.962c-.705.985-1.748 1.764-3.102 2.317-1.338.55-2.94.83-4.768.83-2.192 0-4.03-.38-5.466-1.132a7.085 7.085 0 0 1-2.51-2.2c-.65-.92-.978-1.834-.978-2.72 0-.548.215-1.026.636-1.418.418-.39.954-.584 1.594-.584.523 0 .976.154 1.343.46.352.295.653.73.896 1.29.27.61.564 1.127.874 1.53.3.392.732.72 1.282.978.552.257 1.3.39 2.215.39 1.263 0 2.297-.266 3.074-.79.76-.51 1.13-1.125 1.13-1.878 0-.592-.194-1.06-.59-1.426-.416-.382-.964-.68-1.628-.887-.694-.212-1.635-.444-2.8-.685-1.586-.334-2.93-.73-4-1.18-1.095-.458-1.977-1.094-2.623-1.89-.655-.81-.988-1.825-.988-3.018 0-1.135.348-2.16 1.036-3.043.682-.878 1.68-1.564 2.964-2.03 1.266-.46 2.77-.695 4.478-.695 1.362 0 2.56.155 3.56.463 1.008.308 1.854.723 2.52 1.237.672.52 1.173 1.07 1.485 1.645.316.58.478 1.157.478 1.716 0 .54-.21 1.028-.627 1.453-.417.43-.946.647-1.567.647-.565 0-1.01-.137-1.314-.404-.286-.25-.583-.64-.913-1.196-.38-.713-.84-1.275-1.37-1.672-.513-.385-1.37-.578-2.55-.578-1.09 0-1.982.215-2.642.643-.635.41-.946.883-.946 1.443 0 .342.1.63.307.874.216.263.522.49.91.683.4.198.814.358 1.228.47.424.116 1.135.288 2.11.51 1.238.26 2.372.555 3.375.872 1.018.32 1.895.713 2.613 1.174.73.47 1.308 1.07 1.72 1.79.412.725.62 1.615.62 2.652 0 1.24-.36 2.368-1.068 3.357z"/>
    </symbol>

    <symbol viewBox="0 0 32 32" id="dribble">
        <path d="M32 15.978a16.005 16.005 0 0 1-1.26 6.22 16.11 16.11 0 0 1-3.428 5.078c-.723.72-1.52 1.376-2.366 1.95-.855.575-1.77 1.07-2.718 1.472a16.07 16.07 0 0 1-12.457 0 16.174 16.174 0 0 1-2.718-1.473 16.125 16.125 0 0 1-4.32-4.315 15.964 15.964 0 0 1-2.41-5.716 16.172 16.172 0 0 1 .002-6.433 15.886 15.886 0 0 1 2.41-5.717A16.13 16.13 0 0 1 4.685 4.68 16.07 16.07 0 0 1 9.77 1.255c.966-.41 1.977-.722 3.006-.93a16.123 16.123 0 0 1 9.45.93c.95.4 1.864.896 2.72 1.475a16.356 16.356 0 0 1 2.366 1.95c.723.723 1.38 1.516 1.952 2.363a15.832 15.832 0 0 1 2.41 5.718A15.99 15.99 0 0 1 32 15.978zM10.17 3.636a13.665 13.665 0 0 0-7.542 9.53c.36.002 6.054.073 12.615-1.667a82.155 82.155 0 0 0-5.074-7.864zm6.205 9.964c-7.035 2.103-13.787 1.952-14.03 1.943-.003.146-.01.288-.01.435 0 3.505 1.325 6.7 3.5 9.117-.003-.007 3.736-6.632 11.11-9.013.178-.06.36-.112.54-.163a46.118 46.118 0 0 0-1.11-2.32zm8.648-7.863A13.61 13.61 0 0 0 16 2.334c-1.11 0-2.188.135-3.22.383.204.274 2.77 3.674 5.108 7.96 5.155-1.93 7.102-4.89 7.135-4.94zM18.415 18.18c-.03.01-.06.018-.09.03C10.26 21.015 7.63 26.67 7.6 26.732c2.32 1.802 5.23 2.888 8.4 2.888a13.61 13.61 0 0 0 5.334-1.08c-.202-1.192-.996-5.37-2.92-10.36zm5.22 9.113a13.647 13.647 0 0 0 5.855-9.153c-.28-.09-4.104-1.3-8.515-.593 1.793 4.92 2.52 8.924 2.66 9.746zM18.94 12.71a43.027 43.027 0 0 1 1.202 2.684c4.694-.59 9.32.403 9.517.443a13.563 13.563 0 0 0-3.11-8.527c-.024.037-2.216 3.2-7.61 5.4z"/>
    </symbol>

    <symbol viewBox="0 0 16 33" id="fb">
        <path d="M10.127 32.64V16.317h4.505l.597-5.625h-5.103l.008-2.815c0-1.467.14-2.253 2.246-2.253H15.2V0H10.69C5.28 0 3.375 2.728 3.375 7.317v3.377H0v5.624h3.374v16.32h6.753z"/>
    </symbol>

    <symbol viewBox="0 0 20 20" id="fb-alt">
        <path fill-rule="evenodd" clip-rule="evenodd" d="M 10.6826 20L 1.10385 20C 0.49403 20 0 19.5057 0 18.8961L 0 1.10384C 0 0.494104 0.494108 0 1.10385 0L 18.8962 0C 19.5058 0 20 0.494104 20 1.10384L 20 18.8961C 20 19.5057 19.5057 20 18.8962 20L 13.7997 20L 13.7997 12.2549L 16.3994 12.2549L 16.7886 9.23649L 13.7997 9.23649L 13.7997 7.30943C 13.7997 6.43554 14.0424 5.84 15.2955 5.84L 16.8939 5.83931L 16.8939 3.13962C 16.6175 3.10284 15.6687 3.02065 14.5648 3.02065C 12.2603 3.02065 10.6826 4.4273 10.6826 7.0105L 10.6826 9.23649L 8.0763 9.23649L 8.0763 12.2549L 10.6826 12.2549L 10.6826 20Z" />
    </symbol>

    <symbol viewBox="0 0 30 19" id="gplus">
        <path d="M9.545 8.143V11.4h5.414c-.22 1.398-1.637 4.1-5.415 4.1-3.26 0-5.918-2.69-5.918-6s2.66-6 5.918-6c1.855 0 3.096.79 3.805 1.467l2.59-2.483C14.278.936 12.124 0 9.546 0 4.268 0 0 4.248 0 9.5S4.268 19 9.545 19c5.51 0 9.164-3.854 9.164-9.283 0-.624-.07-1.1-.15-1.574H9.544zM30 8.143h-2.727V5.43h-2.728v2.713h-2.727v2.714h2.727v2.714h2.728v-2.713H30"/>
    </symbol>

    <symbol viewBox="0 0 32 31" id="in">
        <path d="M7.2 9.847H.403v20.427h6.8V9.847zm.448-6.32C7.604 1.528 6.172 0 3.846 0 1.52 0 0 1.526 0 3.528c0 1.962 1.476 3.53 3.758 3.53H3.8c2.372 0 3.848-1.568 3.848-3.53zm24.07 15.035c0-6.274-3.353-9.194-7.827-9.194-3.608 0-5.224 1.982-6.127 3.373V9.85h-6.8c.09 1.917 0 20.427 0 20.427h6.8V18.867c0-.61.044-1.22.224-1.657.492-1.22 1.61-2.482 3.49-2.482 2.46 0 3.444 1.873 3.444 4.618v10.928h6.8V18.562z"/>
    </symbol>

    <symbol viewBox="0 0 32 32" id="instagram">
        <path d="M16.002 0c-4.346 0-4.89.02-6.598.097C7.7.175 6.538.444 5.52.84a7.835 7.835 0 0 0-2.834 1.845A7.854 7.854 0 0 0 .84 5.52C.443 6.536.173 7.7.096 9.4.02 11.11 0 11.655 0 16c0 4.346.02 4.89.097 6.596.078 1.703.348 2.866.743 3.883a7.84 7.84 0 0 0 1.845 2.834A7.835 7.835 0 0 0 5.52 31.16c1.017.396 2.18.666 3.883.744C11.11 31.98 11.653 32 16 32c4.345 0 4.89-.02 6.596-.096 1.703-.078 2.867-.348 3.885-.744a7.828 7.828 0 0 0 2.833-1.846 7.854 7.854 0 0 0 1.847-2.834c.393-1.018.663-2.18.743-3.884C31.98 20.89 32 20.346 32 16c0-4.345-.02-4.89-.097-6.597-.08-1.704-.35-2.866-.743-3.884a7.853 7.853 0 0 0-1.847-2.835A7.82 7.82 0 0 0 26.48.84C25.46.444 24.297.175 22.593.097 20.887.02 20.343 0 15.997 0h.005zm-1.436 2.883H16c4.274 0 4.78.016 6.467.092 1.56.072 2.407.332 2.97.55.747.29 1.28.638 1.84 1.198.56.56.906 1.093 1.197 1.84.22.563.48 1.41.55 2.97.077 1.687.094 2.193.094 6.464 0 4.27-.017 4.776-.093 6.463-.072 1.56-.332 2.407-.55 2.97a4.947 4.947 0 0 1-1.2 1.838c-.56.56-1.09.907-1.837 1.197-.564.22-1.41.48-2.97.55-1.688.078-2.194.094-6.466.094-4.273 0-4.78-.017-6.466-.094-1.56-.072-2.407-.333-2.97-.552a4.956 4.956 0 0 1-1.84-1.196 4.96 4.96 0 0 1-1.198-1.84c-.22-.563-.48-1.41-.55-2.97-.078-1.686-.093-2.193-.093-6.466 0-4.272.015-4.776.092-6.463.07-1.56.332-2.408.55-2.972.29-.746.638-1.28 1.198-1.84a4.966 4.966 0 0 1 1.84-1.197c.564-.22 1.41-.48 2.97-.55 1.477-.067 2.05-.087 5.03-.09v.003zm9.976 2.657a1.92 1.92 0 1 0 0 3.84 1.92 1.92 0 0 0 0-3.84zm-8.54 2.243a8.217 8.217 0 1 0 0 16.435 8.217 8.217 0 0 0 0-16.435zm0 2.884a5.333 5.333 0 1 1 0 10.667 5.333 5.333 0 0 1 0-10.667z" fill="currentColor" />
    </symbol>

    <symbol viewBox="0 0 32 32" id="instagram-gr">
        <path d="M16.002 0c-4.346 0-4.89.02-6.598.097C7.7.175 6.538.444 5.52.84a7.835 7.835 0 0 0-2.834 1.845A7.854 7.854 0 0 0 .84 5.52C.443 6.536.173 7.7.096 9.4.02 11.11 0 11.655 0 16c0 4.346.02 4.89.097 6.596.078 1.703.348 2.866.743 3.883a7.84 7.84 0 0 0 1.845 2.834A7.835 7.835 0 0 0 5.52 31.16c1.017.396 2.18.666 3.883.744C11.11 31.98 11.653 32 16 32c4.345 0 4.89-.02 6.596-.096 1.703-.078 2.867-.348 3.885-.744a7.828 7.828 0 0 0 2.833-1.846 7.854 7.854 0 0 0 1.847-2.834c.393-1.018.663-2.18.743-3.884C31.98 20.89 32 20.346 32 16c0-4.345-.02-4.89-.097-6.597-.08-1.704-.35-2.866-.743-3.884a7.853 7.853 0 0 0-1.847-2.835A7.82 7.82 0 0 0 26.48.84C25.46.444 24.297.175 22.593.097 20.887.02 20.343 0 15.997 0h.005zm-1.436 2.883H16c4.274 0 4.78.016 6.467.092 1.56.072 2.407.332 2.97.55.747.29 1.28.638 1.84 1.198.56.56.906 1.093 1.197 1.84.22.563.48 1.41.55 2.97.077 1.687.094 2.193.094 6.464 0 4.27-.017 4.776-.093 6.463-.072 1.56-.332 2.407-.55 2.97a4.947 4.947 0 0 1-1.2 1.838c-.56.56-1.09.907-1.837 1.197-.564.22-1.41.48-2.97.55-1.688.078-2.194.094-6.466.094-4.273 0-4.78-.017-6.466-.094-1.56-.072-2.407-.333-2.97-.552a4.956 4.956 0 0 1-1.84-1.196 4.96 4.96 0 0 1-1.198-1.84c-.22-.563-.48-1.41-.55-2.97-.078-1.686-.093-2.193-.093-6.466 0-4.272.015-4.776.092-6.463.07-1.56.332-2.408.55-2.972.29-.746.638-1.28 1.198-1.84a4.966 4.966 0 0 1 1.84-1.197c.564-.22 1.41-.48 2.97-.55 1.477-.067 2.05-.087 5.03-.09v.003zm9.976 2.657a1.92 1.92 0 1 0 0 3.84 1.92 1.92 0 0 0 0-3.84zm-8.54 2.243a8.217 8.217 0 1 0 0 16.435 8.217 8.217 0 0 0 0-16.435zm0 2.884a5.333 5.333 0 1 1 0 10.667 5.333 5.333 0 0 1 0-10.667z" fill="url(#instagradient) currentColor" />
    </symbol>

    <symbol viewBox="0 0 18 30" id="ok">
        <path d="M8.98 4.537c1.83 0 3.32 1.437 3.32 3.205 0 1.766-1.49 3.204-3.32 3.204-1.83 0-3.32-1.438-3.32-3.204 0-1.768 1.49-3.205 3.32-3.205zm0 10.945c4.423 0 8.02-3.472 8.02-7.74C17 3.472 13.403 0 8.98 0S.96 3.473.96 7.742c0 4.268 3.597 7.74 8.02 7.74zm3.265 6.318a15.328 15.328 0 0 0 4.657-1.86c1.097-.67 1.428-2.07.737-3.13-.692-1.06-2.142-1.38-3.24-.712-3.287 1.994-7.516 1.994-10.8 0-1.1-.668-2.55-.348-3.238.713-.692 1.06-.362 2.46.735 3.13a15.352 15.352 0 0 0 4.657 1.86L1.27 26.13a2.213 2.213 0 0 0 .002 3.206c.46.442 1.06.664 1.66.664a2.39 2.39 0 0 0 1.663-.664L9 25.083l4.407 4.253a2.408 2.408 0 0 0 3.32 0 2.21 2.21 0 0 0 0-3.207l-4.482-4.33z"/>
    </symbol>

    <symbol viewBox="0 0 56 55" id="p">
        <path d="M.772 27.367c0 11.506 7.154 21.337 17.25 25.296-.238-2.148-.45-5.446.095-7.796.49-2.12 3.183-13.5 3.183-13.5s-.812-1.628-.812-4.032c0-3.78 2.185-6.598 4.912-6.598 2.313 0 3.432 1.74 3.432 3.827 0 2.33-1.482 5.814-2.25 9.044-.637 2.707 1.358 4.91 4.02 4.91 4.826 0 8.534-5.093 8.534-12.442 0-6.504-4.667-11.05-11.337-11.05-7.722 0-12.255 5.798-12.255 11.79 0 2.333.895 4.837 2.018 6.198.22.27.253.504.19.78-.207.857-.665 2.704-.755 3.08-.12.497-.395.603-.91.365-3.39-1.58-5.506-6.544-5.506-10.525 0-8.57 6.22-16.44 17.933-16.44 9.415 0 16.733 6.715 16.733 15.69 0 9.36-5.9 16.896-14.083 16.896-2.753 0-5.34-1.43-6.224-3.12 0 0-1.36 5.185-1.69 6.456-.612 2.36-2.268 5.317-3.37 7.12a26.992 26.992 0 0 0 8.035 1.215c14.99 0 27.143-12.16 27.143-27.163C55.058 12.36 42.906.202 27.915.202 12.925.203.772 12.363.772 27.367z"/>
    </symbol>

    <symbol viewBox="0 0 29 24" id="twitter">
        <path d="M14.102 6.384l.062 1.038-1.05-.127C9.297 6.808 5.96 5.155 3.128 2.38L1.742 1.003 1.385 2.02c-.755 2.267-.273 4.66 1.3 6.27.84.89.652 1.018-.796.488-.505-.17-.946-.296-.988-.233-.147.15.357 2.076.756 2.84.545 1.058 1.658 2.096 2.875 2.71l1.028.488-1.216.02c-1.175 0-1.217.022-1.09.467.418 1.377 2.076 2.84 3.923 3.475l1.3.444-1.132.677a11.815 11.815 0 0 1-5.624 1.568c-.944.02-1.72.106-1.72.17 0 .21 2.56 1.398 4.05 1.864 4.47 1.376 9.78.783 13.766-1.57 2.833-1.672 5.666-5 6.988-8.22.713-1.715 1.426-4.85 1.426-6.354 0-.975.063-1.102 1.24-2.267.69-.68 1.342-1.42 1.467-1.632.21-.403.19-.403-.88-.043-1.785.636-2.036.55-1.155-.402.65-.678 1.427-1.907 1.427-2.267 0-.063-.316.042-.673.233-.377.21-1.217.53-1.846.72l-1.132.36-1.03-.7c-.565-.38-1.363-.805-1.782-.932-1.07-.296-2.707-.254-3.673.085-2.623.953-4.28 3.41-4.09 6.1z"/>
    </symbol>

    <symbol viewBox="0 0 37 38" id="viber">
        <path d="M27.993 15.198c-.146-1.185-.51-2.116-1.158-2.94-.84-1.062-1.914-1.698-3.503-2.075-1.036-.25-1.455-.222-1.83.12-.348.32-.416.963-.15 1.38.188.302.404.41 1.006.528.8.148 1.355.34 1.86.628 1.068.617 1.566 1.583 1.62 3.148.025.734.088.96.344 1.22.476.476 1.322.384 1.68-.186.133-.215.153-.308.167-.807.008-.31-.005-.768-.037-1.015z"/>
        <path d="M32.18 16.535c-.21-3.632-1.63-6.554-4.173-8.61-1.432-1.155-3.164-1.95-5.062-2.336-.695-.14-1.975-.25-2.194-.187-.207.06-.5.284-.63.487-.138.22-.17.71-.052.995.19.475.544.643 1.535.73 1.528.134 3.103.67 4.294 1.465a9.005 9.005 0 0 1 3.14 3.596c.602 1.25.974 3.05.964 4.662-.003.583.087.912.322 1.153.354.37.87.452 1.325.206.505-.265.623-.73.534-2.16zM36.815 30.52a3.986 3.986 0 0 0-.355-.71c-.746-1.128-4.754-4.265-6.756-5.29-1.142-.588-1.99-.783-2.617-.6-.675.19-1.03.505-2.16 1.91-.457.563-.924 1.09-1.05 1.174-.307.213-.91.386-1.337.386-.99-.007-2.783-.647-4.162-1.49-1.072-.65-2.445-1.82-3.5-2.976-1.243-1.358-2.09-2.555-2.76-3.907-.863-1.738-1.082-2.8-.72-3.576a2.88 2.88 0 0 1 .26-.468c.053-.06.61-.515 1.225-1.014 1.208-.96 1.403-1.18 1.628-1.838.286-.836.21-1.69-.23-2.55-.337-.652-1.22-2.075-1.86-2.994-.845-1.21-2.953-3.795-3.374-4.145-.757-.616-1.728-.723-2.8-.307-1.13.438-3.25 2.146-4.157 3.338C1.27 6.54.96 7.306.91 8.314c-.04.83.03 1.174.47 2.236C4.806 18.873 9.922 25.52 16.95 30.8c3.672 2.756 7.48 4.856 11.428 6.29 2.303.837 3.304.878 4.482.19.497-.296 1.73-1.56 2.416-2.478 1.137-1.53 1.557-2.236 1.675-2.8.084-.385.02-1.055-.135-1.482z"/>
        <path d="M36.444 17.37c-.075-2.056-.42-3.74-1.143-5.62-.71-1.847-1.43-3.053-2.792-4.684-1.287-1.53-2.286-2.403-3.87-3.375-2.213-1.353-4.904-2.25-7.92-2.626-1.03-.132-1.26-.122-1.577.088-.61.4-.602 1.394.01 1.787.204.124.385.17 1.207.277 1.263.17 2.075.33 3.04.593 3.778 1.033 6.684 3.145 8.626 6.28 1.626 2.61 2.3 5.224 2.205 8.56-.033 1.13-.01 1.328.164 1.6.33.504 1.2.604 1.647.184.277-.255.33-.447.385-1.412.026-.504.03-1.247.02-1.653z"/>
    </symbol>

    <symbol viewBox="0 0 32 18" id="vk">
        <path d="M17.57 17.845s.577-.063.873-.375c.27-.286.26-.825.26-.825s-.035-2.518 1.156-2.89c1.173-.365 2.68 2.435 4.28 3.512 1.208.815 2.125.636 2.125.636l4.274-.058s2.234-.135 1.175-1.86c-.088-.142-.618-1.277-3.177-3.61-2.68-2.44-2.32-2.046.906-6.27 1.966-2.57 2.75-4.14 2.506-4.812C31.716.65 30.27.82 30.27.82l-4.81.03s-.358-.047-.622.108c-.258.152-.426.507-.426.507s-.76 1.99-1.776 3.682c-2.143 3.57-3 3.76-3.35 3.54-.815-.52-.612-2.08-.612-3.186 0-3.46.536-4.903-1.04-5.276-.523-.125-.908-.206-2.246-.22-1.717-.017-3.17.006-3.993.4-.548.264-.97.85-.712.884.318.042 1.037.19 1.42.7.492.66.475 2.138.475 2.138s.283 4.074-.662 4.58c-.648.347-1.537-.36-3.448-3.602C7.49 3.444 6.75 1.61 6.75 1.61s-.14-.342-.396-.526c-.31-.223-.74-.292-.74-.292l-4.57.03s-.688.018-.94.31c-.224.26-.017.8-.017.8s3.58 8.22 7.633 12.364c3.717 3.798 7.937 3.55 7.937 3.55h1.912z"/>
    </symbol>

    <symbol viewBox="0 0 32 23" id="yt">
        <path d="M12.696 15.74V6.554l8.645 4.61-8.644 4.578zM31.68 4.96s-.313-2.252-1.272-3.244C29.19.413 27.828.406 27.202.33 22.724 0 16.007 0 16.007 0h-.014S9.276 0 4.798.33c-.626.077-1.99.083-3.207 1.386C.633 2.708.32 4.96.32 4.96S0 7.61 0 10.255v2.48c0 2.648.32 5.293.32 5.293s.312 2.254 1.27 3.246c1.22 1.303 2.818 1.262 3.53 1.398C7.68 22.923 16 23 16 23s6.724-.01 11.202-.34c.625-.078 1.99-.084 3.206-1.387.96-.992 1.272-3.246 1.272-3.246s.32-2.645.32-5.292v-2.48c0-2.647-.32-5.294-.32-5.294z"/>
    </symbol>

    <symbol viewBox="0 0 60 59" id="github">
        <path d="M30.054.22C13.518.22.11 13.63.11 30.17c0 13.23 8.58 24.457 20.477 28.417 1.497.278 2.046-.65 2.046-1.44 0-.714-.027-3.074-.04-5.576-8.33 1.813-10.09-3.533-10.09-3.533-1.36-3.46-3.323-4.382-3.323-4.382-2.717-1.858.204-1.82.204-1.82 3.007.21 4.59 3.086 4.59 3.086 2.67 4.58 7.006 3.256 8.714 2.49.27-1.935 1.045-3.257 1.902-4.004-6.65-.757-13.643-3.325-13.643-14.8 0-3.27 1.17-5.942 3.085-8.04-.31-.754-1.336-3.8.29-7.925 0 0 2.515-.804 8.237 3.07 2.388-.663 4.95-.996 7.494-1.007 2.545.01 5.108.344 7.502 1.008 5.715-3.874 8.226-3.07 8.226-3.07 1.63 4.126.604 7.172.294 7.926 1.92 2.098 3.08 4.77 3.08 8.04 0 11.502-7.004 14.035-13.672 14.776 1.074.93 2.03 2.752 2.03 5.546 0 4.007-.033 7.232-.033 8.22 0 .796.54 1.73 2.058 1.435 11.89-3.964 20.46-15.186 20.46-28.414C59.998 13.63 46.59.22 30.054.22"/>
    </symbol>

    <symbol viewBox="0 0 25 16" id="gplus">
        <path d="M25 7h-3V4h-2v3h-3v2h3v3h2V9h3V7zM8 6.5v3.12h4.36c-.335 1.88-1.965 3.25-4.36 3.25-2.64 0-4.785-2.235-4.785-4.875S5.36 3.125 8 3.125c1.19 0 2.255.41 3.095 1.21v.005l2.255-2.255C11.965.795 10.16 0 8 0 3.58 0 0 3.58 0 8s3.58 8 8 8c4.62 0 7.68-3.25 7.68-7.82 0-.585-.055-1.145-.155-1.68H8z"/>
    </symbol>

    <symbol viewBox="0 0 16 16" id="lj">
        <path d="M8.376 1.02a7.44 7.44 0 0 0-2.87.572L3.954.038A.13.13 0 0 0 3.79.02 11.582 11.582 0 0 0 .05 3.76a.13.13 0 0 0 .018.163l1.49 1.49A7.422 7.422 0 0 0 .886 8.51c0 4.13 3.36 7.49 7.49 7.49 4.13 0 7.49-3.36 7.49-7.49 0-4.13-3.36-7.49-7.49-7.49zm2.967 6.78l.522 2.206.5 2.33-2.326-.5-2.207-.52-5.96-5.96a7.23 7.23 0 0 1 3.574-3.453L11.343 7.8zm.238 2.03L11.187 8.1a6.193 6.193 0 0 0-3.057 3.058l1.73.395a3.892 3.892 0 0 1 1.72-1.72z" fill-rule="nonzero"/>
    </symbol>

    <symbol viewBox="0 0 13 16" id="periscope">
        <path d="M12.497 6.248C12.497 10.894 7.5 16 6.247 16 4.998 16 0 10.894 0 6.248a6.248 6.248 0 0 1 12.497 0zm-6.25-3.77c-.3 0-.59.036-.87.102a1.53 1.53 0 1 1-2.2 1.467 3.79 3.79 0 1 0 3.07-1.57z"/>
    </symbol>

    <symbol viewBox="0 0 32 32" id="skype">
        <path d="M31.08 19.397c.23-1.042.352-2.122.352-3.23 0-8.31-6.832-15.05-15.263-15.05-.89 0-1.76.077-2.61.222A8.894 8.894 0 0 0 8.852 0C3.962 0 0 3.906 0 8.728c0 1.61.444 3.116 1.215 4.415-.2.975-.308 1.988-.308 3.023 0 8.313 6.833 15.05 15.262 15.05.955 0 1.888-.088 2.795-.253A8.914 8.914 0 0 0 23.15 32c4.888 0 8.85-3.908 8.85-8.727 0-1.393-.33-2.708-.92-3.876zm-7.082 3.962c-.705.985-1.748 1.764-3.102 2.317-1.338.55-2.94.83-4.768.83-2.192 0-4.03-.38-5.466-1.132a7.085 7.085 0 0 1-2.51-2.2c-.65-.92-.978-1.834-.978-2.72 0-.548.215-1.026.636-1.418.418-.39.954-.584 1.594-.584.523 0 .976.154 1.343.46.352.295.653.73.896 1.29.27.61.564 1.127.874 1.53.3.392.732.72 1.282.978.552.257 1.3.39 2.215.39 1.263 0 2.297-.266 3.074-.79.76-.51 1.13-1.125 1.13-1.878 0-.592-.194-1.06-.59-1.426-.416-.382-.964-.68-1.628-.887-.694-.212-1.635-.444-2.8-.685-1.586-.334-2.93-.73-4-1.18-1.095-.458-1.977-1.094-2.623-1.89-.655-.81-.988-1.825-.988-3.018 0-1.135.348-2.16 1.036-3.043.682-.878 1.68-1.564 2.964-2.03 1.266-.46 2.77-.695 4.478-.695 1.362 0 2.56.155 3.56.463 1.008.308 1.854.723 2.52 1.237.672.52 1.173 1.07 1.485 1.645.316.58.478 1.157.478 1.716 0 .54-.21 1.028-.627 1.453-.417.43-.946.647-1.567.647-.565 0-1.01-.137-1.314-.404-.286-.25-.583-.64-.913-1.196-.38-.713-.84-1.275-1.37-1.672-.513-.385-1.37-.578-2.55-.578-1.09 0-1.982.215-2.642.643-.635.41-.946.883-.946 1.443 0 .342.1.63.307.874.216.263.522.49.91.683.4.198.814.358 1.228.47.424.116 1.135.288 2.11.51 1.238.26 2.372.555 3.375.872 1.018.32 1.895.713 2.613 1.174.73.47 1.308 1.07 1.72 1.79.412.725.62 1.615.62 2.652 0 1.24-.36 2.368-1.068 3.357z"/>
    </symbol>

    <symbol viewBox="0 0 32 30" id="snapchat">
        <path d="M16.308 0h-.08l-.55.006c-.71 0-2.132.1-3.66.772A8.152 8.152 0 0 0 9.687 2.32c-.806.763-1.462 1.703-1.95 2.795-.715 1.6-.545 4.292-.41 6.456v.005c.016.232.03.474.045.71-.103.048-.274.098-.524.098-.404 0-.883-.128-1.426-.382a1.278 1.278 0 0 0-.542-.11c-.323 0-.663.094-.96.268-.37.217-.61.524-.675.865-.043.226-.04.67.455 1.123.273.25.674.478 1.192.682.136.053.297.104.468.158.592.188 1.49.472 1.723 1.02.12.28.068.645-.15 1.087l-.017.037c-.055.127-.564 1.28-1.61 2.493a9.05 9.05 0 0 1-1.945 1.716A7.163 7.163 0 0 1 .628 22.4a.748.748 0 0 0-.627.78c.008.11.033.22.078.325v.002c.154.355.51.658 1.085.925.704.326 1.757.6 3.13.815.068.132.14.462.19.688.052.24.107.488.184.75.084.285.3.625.858.625.212 0 .455-.047.736-.102.413-.08.977-.19 1.68-.19.39 0 .794.035 1.2.102.785.13 1.46.606 2.243 1.158 1.145.807 2.44 1.72 4.42 1.72.054 0 .108-.002.162-.005.065.003.146.005.232.005 1.98 0 3.276-.914 4.42-1.72.783-.552 1.46-1.028 2.242-1.158a7.38 7.38 0 0 1 1.2-.1c.672 0 1.204.084 1.68.176.31.06.55.09.735.09h.038c.406 0 .706-.222.82-.613.076-.257.13-.498.184-.743.047-.212.12-.552.19-.685 1.374-.215 2.426-.488 3.13-.814.575-.266.93-.57 1.083-.924a.954.954 0 0 0 .08-.33.748.748 0 0 0-.628-.78c-4.278-.702-6.205-5.085-6.285-5.27a.533.533 0 0 0-.017-.037c-.22-.443-.27-.81-.15-1.087.233-.55 1.13-.832 1.722-1.02a7.36 7.36 0 0 0 .468-.158c.584-.23 1-.48 1.276-.763.33-.337.393-.66.39-.873-.01-.512-.404-.967-1.028-1.19a1.842 1.842 0 0 0-.697-.133c-.165 0-.412.022-.646.13-.5.235-.95.362-1.334.38a1.21 1.21 0 0 1-.44-.096c.01-.2.024-.405.037-.62l.005-.09c.138-2.167.308-4.862-.408-6.462-.49-1.096-1.148-2.038-1.957-2.802A8.174 8.174 0 0 0 19.965.767 9.34 9.34 0 0 0 16.308 0"/>
    </symbol>

    <symbol viewBox="0 0 33 28" id="telegram">
        <path d="M12.5 25.75c.75 0 1.08-.343 1.5-.75l4-3.89-4.99-3.008m0 0l12.09 8.933c1.38.76 2.375.367 2.72-1.28l4.92-23.192c.504-2.02-.77-2.936-2.09-2.337L1.753 11.37c-1.973.79-1.96 1.89-.36 2.38l7.416 2.315 17.167-10.83c.81-.492 1.555-.228.944.314"/>
    </symbol>

    <symbol viewBox="0 0 37 38" id="viber">
        <path d="M27.993 15.198c-.146-1.185-.51-2.116-1.158-2.94-.84-1.062-1.914-1.698-3.503-2.075-1.036-.25-1.455-.222-1.83.12-.348.32-.416.963-.15 1.38.188.302.404.41 1.006.528.8.148 1.355.34 1.86.628 1.068.617 1.566 1.583 1.62 3.148.025.734.088.96.344 1.22.476.476 1.322.384 1.68-.186.133-.215.153-.308.167-.807.008-.31-.005-.768-.037-1.015z"/>
        <path d="M32.18 16.535c-.21-3.632-1.63-6.554-4.173-8.61-1.432-1.155-3.164-1.95-5.062-2.336-.695-.14-1.975-.25-2.194-.187-.207.06-.5.284-.63.487-.138.22-.17.71-.052.995.19.475.544.643 1.535.73 1.528.134 3.103.67 4.294 1.465a9.005 9.005 0 0 1 3.14 3.596c.602 1.25.974 3.05.964 4.662-.003.583.087.912.322 1.153.354.37.87.452 1.325.206.505-.265.623-.73.534-2.16zM36.815 30.52a3.986 3.986 0 0 0-.355-.71c-.746-1.128-4.754-4.265-6.756-5.29-1.142-.588-1.99-.783-2.617-.6-.675.19-1.03.505-2.16 1.91-.457.563-.924 1.09-1.05 1.174-.307.213-.91.386-1.337.386-.99-.007-2.783-.647-4.162-1.49-1.072-.65-2.445-1.82-3.5-2.976-1.243-1.358-2.09-2.555-2.76-3.907-.863-1.738-1.082-2.8-.72-3.576a2.88 2.88 0 0 1 .26-.468c.053-.06.61-.515 1.225-1.014 1.208-.96 1.403-1.18 1.628-1.838.286-.836.21-1.69-.23-2.55-.337-.652-1.22-2.075-1.86-2.994-.845-1.21-2.953-3.795-3.374-4.145-.757-.616-1.728-.723-2.8-.307-1.13.438-3.25 2.146-4.157 3.338C1.27 6.54.96 7.306.91 8.314c-.04.83.03 1.174.47 2.236C4.806 18.873 9.922 25.52 16.95 30.8c3.672 2.756 7.48 4.856 11.428 6.29 2.303.837 3.304.878 4.482.19.497-.296 1.73-1.56 2.416-2.478 1.137-1.53 1.557-2.236 1.675-2.8.084-.385.02-1.055-.135-1.482z"/>
        <path d="M36.444 17.37c-.075-2.056-.42-3.74-1.143-5.62-.71-1.847-1.43-3.053-2.792-4.684-1.287-1.53-2.286-2.403-3.87-3.375-2.213-1.353-4.904-2.25-7.92-2.626-1.03-.132-1.26-.122-1.577.088-.61.4-.602 1.394.01 1.787.204.124.385.17 1.207.277 1.263.17 2.075.33 3.04.593 3.778 1.033 6.684 3.145 8.626 6.28 1.626 2.61 2.3 5.224 2.205 8.56-.033 1.13-.01 1.328.164 1.6.33.504 1.2.604 1.647.184.277-.255.33-.447.385-1.412.026-.504.03-1.247.02-1.653z"/>
    </symbol>

    <symbol viewBox="0 0 36 32" id="vimeo">
        <path d="M35.982 7.203c-.16 3.504-2.607 8.3-7.342 14.392-4.894 6.36-9.036 9.54-12.422 9.54-2.1 0-3.875-1.936-5.326-5.81L7.987 14.67C6.91 10.8 5.755 8.86 4.517 8.86c-.268 0-1.21.567-2.824 1.695L0 8.375c1.777-1.56 3.53-3.122 5.253-4.685C7.623 1.643 9.403.566 10.59.457c2.8-.27 4.524 1.646 5.17 5.744.7 4.424 1.185 7.174 1.456 8.25.81 3.67 1.698 5.503 2.668 5.503.753 0 1.885-1.19 3.394-3.57 1.507-2.38 2.315-4.19 2.424-5.436.215-2.054-.593-3.083-2.424-3.083-.86 0-1.75.198-2.664.59 1.77-5.794 5.15-8.608 10.14-8.447 3.697.108 5.442 2.507 5.228 7.196"/>
    </symbol>

    <symbol viewBox="0 0 16 16" id="whatsapp">
        <path d="M13.608 2.325A7.88 7.88 0 0 0 7.998 0C3.625 0 .067 3.556.065 7.928c0 1.397.365 2.76 1.06 3.964L0 16l4.204-1.102a7.928 7.928 0 0 0 3.79.965h.004c4.37 0 7.93-3.557 7.93-7.93a7.88 7.88 0 0 0-2.32-5.608zm-5.61 12.2h-.003a6.583 6.583 0 0 1-3.355-.92l-.24-.143-2.496.654.666-2.43-.157-.25a6.573 6.573 0 0 1-1.007-3.508A6.6 6.6 0 0 1 8 1.338a6.55 6.55 0 0 1 4.66 1.934 6.55 6.55 0 0 1 1.93 4.662 6.6 6.6 0 0 1-6.592 6.59zm2.26-5.58c-.18-.068-.313-.1-.445.098s-.512.644-.627.777c-.116.132-.23.148-.43.05-.198-.1-.836-.31-1.593-.984-.59-.525-.987-1.174-1.102-1.373-.115-.198-.012-.305.087-.404.09-.09.2-.232.298-.348.1-.116.132-.198.198-.33.066-.133.033-.248-.017-.348-.05-.1-.446-1.074-.61-1.47-.162-.387-.325-.334-.447-.34a7.945 7.945 0 0 0-.38-.007.728.728 0 0 0-.53.247c-.18.2-.692.678-.692 1.653s.71 1.917.81 2.05c.098.132 1.396 2.133 3.384 2.99.473.205.842.327 1.13.418.474.15.906.13 1.248.08.38-.058 1.172-.48 1.338-.943.165-.463.165-.86.115-.942-.05-.083-.182-.133-.38-.232-.198-.1-1.172-.578-1.354-.644z"/>
    </symbol>

    <symbol viewBox="0 0 18 16" id="in">
        <path d="M4 16H0V5H4V16ZM2 3.69922C0.800781 3.69922 0 2.89844 0 1.89844C0 0.800781 0.800781 0 2 0C3.19922 0 4 0.800781 4 1.80078C4 2.89844 3.19922 3.69922 2 3.69922ZM18 16H14V10C14 8.39844 12.8984 8 12.6016 8C12.3008 8 11 8.19922 11 10C11 10.1992 11 16 11 16H7V5H11V6.60156C11.6016 5.69922 12.6016 5 14.5 5C16.3984 5 18 6.5 18 10V16Z"/>
    </symbol>

    <symbol viewBox="0 0 20 20" fill="none" id="tripadvisor">
        <path d="M4.95235 9.98096C4.49521 9.98096 4.11426 10.3238 4.11426 10.8191C4.11426 11.2762 4.45711 11.6571 4.95235 11.6571C5.44759 11.6571 5.79045 11.3143 5.79045 10.8191C5.79045 10.3238 5.4095 9.98096 4.95235 9.98096Z" fill="currentColor"/>
        <path d="M14.9714 9.98096C14.5143 9.98096 14.1333 10.3238 14.1333 10.8191C14.1333 11.2762 14.4762 11.6571 14.9714 11.6571C15.4285 11.6571 15.8095 11.3143 15.8095 10.8191C15.8095 10.3238 15.4285 9.98096 14.9714 9.98096Z" fill="currentColor"/>
        <path d="M19.0095 7.88571C19.2381 6.89524 20 5.86667 20 5.86667H16.6857C14.819 4.64762 12.5333 4 10.0571 4C7.46667 4 5.06667 4.68571 3.2 5.86667L0 5.90476C0 5.90476 0.761905 6.89524 0.990476 7.88571C0.380952 8.68571 0 9.71429 0 10.819C0 13.6 2.28571 15.8095 4.99048 15.8095C6.59048 15.8095 7.9619 15.0476 8.91429 13.9429L9.98095 15.5429L11.0476 13.9048C11.5048 14.5524 12.1524 15.0095 12.8762 15.3524C14.0952 15.9238 15.4286 16 16.7238 15.5048C19.2762 14.5524 20.6476 11.6571 19.6952 9.10476C19.5048 8.64762 19.2762 8.22857 19.0095 7.88571ZM13.2952 14.4762C12.3429 14.0571 11.581 13.2571 11.2381 12.2286C10.8952 11.2381 10.9333 10.1333 11.3524 9.18095C11.7714 8.22857 12.5714 7.46667 13.6 7.12381C15.6571 6.3619 17.9429 7.42857 18.7429 9.48571C19.5048 11.5429 18.4381 13.8286 16.381 14.6286C15.3524 14.9333 14.2857 14.8952 13.2952 14.4762ZM4.99048 14.819C2.78095 14.819 0.990476 13.0286 0.990476 10.819C0.990476 8.60952 2.78095 6.85714 4.99048 6.85714C7.2 6.85714 8.99048 8.60952 8.99048 10.819C8.99048 12.9905 7.2 14.819 4.99048 14.819ZM13.2571 6.17143C12 6.62857 11.0095 7.54286 10.4381 8.7619C10.2095 9.33333 10.0571 9.86667 10.019 10.4762C9.82857 7.92381 7.73333 5.90476 5.14286 5.86667C6.55238 5.25714 8.22857 4.91429 10.019 4.91429C11.8095 4.91429 13.4095 5.21905 14.8571 5.86667C14.2857 5.86667 13.7905 5.98095 13.2571 6.17143Z" fill="currentColor"/>
        <path d="M4.9525 8.30481C3.61917 8.30481 2.5144 9.40957 2.5144 10.7429C2.5144 12.0762 3.61917 13.181 4.9525 13.181C6.28583 13.181 7.39059 12.0762 7.39059 10.7429C7.39059 9.40957 6.28583 8.30481 4.9525 8.30481ZM4.9525 12.4191C4.03821 12.4191 3.3144 11.6953 3.3144 10.781C3.3144 9.86671 4.03821 9.14291 4.9525 9.14291C5.86679 9.14291 6.59059 9.86671 6.59059 10.781C6.59059 11.6572 5.82869 12.4191 4.9525 12.4191Z" fill="currentColor"/>
        <path d="M14.9714 8.30481C13.6381 8.30481 12.5333 9.40957 12.5333 10.7429C12.5333 12.0762 13.6381 13.181 14.9714 13.181C16.3048 13.181 17.4095 12.0762 17.4095 10.7429C17.4095 9.40957 16.3428 8.30481 14.9714 8.30481ZM14.9714 12.4191C14.0571 12.4191 13.3333 11.6953 13.3333 10.781C13.3333 9.86671 14.0571 9.14291 14.9714 9.14291C15.8857 9.14291 16.6095 9.86671 16.6095 10.781C16.5714 11.6572 15.8857 12.4191 14.9714 12.4191Z" fill="currentColor"/>
    </symbol>
</svg>
