<svg width="190" height="58" viewBox="0 0 190 58" fill="none" xmlns="http://www.w3.org/2000/svg">
<g clip-path="url(#clip0)">
<path d="M78.3552 22.8449C77.4539 23.607 76.4268 24.1742 75.2739 24.5553C74.1211 24.9363 72.9138 25.1268 71.6561 25.1268C70.4194 25.1268 69.2247 24.9363 68.0719 24.5553C66.919 24.1742 65.8961 23.62 65.0074 22.8882C64.1145 22.1565 63.4018 21.2645 62.8694 20.2037C62.3328 19.1428 62.0687 17.9391 62.0687 16.5795C62.0687 15.2199 62.3412 14.0204 62.8862 12.9726C63.4312 11.9247 64.1564 11.0414 65.0577 10.3227C65.959 9.60387 66.9861 9.0583 68.1389 8.68592C69.2918 8.31787 70.4781 8.13168 71.6939 8.13168C72.8886 8.13168 74.054 8.30055 75.1859 8.64262C76.3178 8.98036 77.3365 9.48264 78.2378 10.1365L76.0663 12.6045C75.4584 12.1932 74.7709 11.8814 74.0079 11.6649C73.2408 11.4484 72.4736 11.3402 71.6981 11.3402C70.9015 11.3402 70.1344 11.4484 69.4008 11.6649C68.6671 11.8814 68.0048 12.2062 67.4179 12.6349C66.831 13.0679 66.3657 13.6178 66.0177 14.2846C65.6698 14.9514 65.4979 15.7394 65.4979 16.6444C65.4979 17.5494 65.674 18.3288 66.0345 18.9869C66.3908 19.6451 66.8603 20.1907 67.4514 20.6237C68.0383 21.0567 68.7049 21.3771 69.4469 21.5936C70.1889 21.8101 70.9519 21.9183 71.7274 21.9183C72.6077 21.9183 73.4629 21.7711 74.2888 21.4723C75.1146 21.1736 75.8441 20.7492 76.4729 20.195L78.3552 22.8449Z" fill="black"/>
<path d="M102.192 11.219V24.6332H98.6368V15.2891L92.881 22.8146L87.1252 15.2891V24.6332H83.5702V11.219L81.973 8.65995H85.9346L92.8852 17.6966L99.8357 8.65995H103.797L102.192 11.219Z" fill="black"/>
<path d="M113.829 8.29189H117.321L126.129 24.6375H122.574L121.283 22.2301H119.333C118.327 22.2301 117.329 22.3124 116.344 22.4769C115.359 22.6414 114.462 22.8406 113.657 23.0788C112.848 23.3169 112.169 23.5637 111.611 23.8192C111.054 24.0747 110.714 24.2868 110.588 24.4514L110.492 24.6375H107.096L114.898 10.2967L113.829 8.29189ZM119.74 19.329L116.562 13.4099L112.693 20.7189C113.217 20.4505 114.026 20.156 115.116 19.8226C116.206 19.4935 117.602 19.329 119.3 19.329H119.74Z" fill="black"/>
<path d="M134.584 24.6332H131.155V8.65995H134.584V15.1073H135.653C136.219 15.1073 136.697 15.0597 137.083 14.9687C137.468 14.8778 137.821 14.7089 138.135 14.4621L142.73 8.65995H146.88L140.906 16.1551L143.643 19.7923C144.125 20.4505 144.637 20.8878 145.186 21.1043C145.731 21.3208 146.213 21.429 146.632 21.429H147.764V24.6376H146.347C145.928 24.6376 145.517 24.6202 145.119 24.5899C144.721 24.5596 144.323 24.46 143.924 24.2955C143.526 24.1309 143.128 23.8798 142.73 23.5377C142.331 23.2 141.912 22.7194 141.472 22.1045L138.609 18.095C138.189 18.2595 137.753 18.3678 137.305 18.4197C136.852 18.4717 136.408 18.4977 135.968 18.4977H134.584V24.6332Z" fill="black"/>
<path d="M153.956 20.3812C154.375 20.7103 154.857 21.0307 155.402 21.3381C155.947 21.6455 156.459 21.8014 156.945 21.8014C157.574 21.8014 158.073 21.6629 158.437 21.3857C158.802 21.1086 159.133 20.7622 159.427 20.3509C158.672 19.9785 157.897 19.3983 157.1 18.6102C156.304 17.8178 155.549 16.8999 154.836 15.852C154.124 14.8042 153.478 13.6611 152.904 12.427C152.325 11.193 151.873 9.94162 151.537 8.66428H155.155C155.637 10.5954 156.396 12.3664 157.436 13.9685C158.475 15.5706 159.779 16.8652 161.351 17.8525C161.665 17.3589 162.005 16.7743 162.374 16.0945C162.739 15.4147 163.112 14.6743 163.489 13.8732C163.866 13.0722 164.231 12.2278 164.592 11.3445C164.948 10.4612 165.271 9.56491 165.568 8.65995H169.06C168.641 9.85069 168.163 11.0934 167.631 12.3751C167.094 13.6611 166.524 14.9124 165.916 16.1378C165.308 17.3589 164.659 18.528 163.967 19.6364C163.275 20.7449 162.571 21.7321 161.858 22.5981C161.439 23.0917 161.045 23.4814 160.68 23.7716C160.311 24.0617 159.942 24.2868 159.565 24.4514C159.188 24.6159 158.785 24.7241 158.354 24.7761C157.922 24.8281 157.436 24.854 156.891 24.854C156.555 24.854 156.186 24.8107 155.788 24.7328C155.39 24.6505 154.979 24.5336 154.56 24.3777C154.141 24.2219 153.721 24.04 153.302 23.8235C152.883 23.607 152.506 23.3775 152.17 23.1307L153.956 20.3812Z" fill="black"/>
<path d="M186.793 8.65994H190V24.6332H186.793V13.1025L177.294 24.6375H174.087V8.65994H177.294V20.1344L186.793 8.65994ZM182.358 4.86689C182.861 4.86689 183.276 4.79328 183.599 4.65039C183.921 4.5075 184.169 4.31698 184.336 4.07883C184.504 3.84068 184.617 3.58954 184.68 3.32109C184.743 3.05263 184.777 2.79716 184.777 2.55035H188.394C188.332 3.02232 188.193 3.52026 187.988 4.04419C187.778 4.56812 187.443 5.05308 186.982 5.49473C186.521 5.93639 185.917 6.30011 185.175 6.59022C184.429 6.88032 183.494 7.02321 182.362 7.02321C181.23 7.02321 180.291 6.88032 179.549 6.59022C178.803 6.30444 178.203 5.93639 177.742 5.49473C177.281 5.05308 176.946 4.56812 176.736 4.04419C176.526 3.52026 176.388 3.02232 176.325 2.55035H179.943C179.943 2.79716 179.977 3.05263 180.039 3.32109C180.102 3.58954 180.216 3.84068 180.387 4.07883C180.555 4.31698 180.802 4.5075 181.125 4.65039C181.44 4.79761 181.855 4.86689 182.358 4.86689Z" fill="black"/>
<path d="M28.0789 0C12.5722 0 0 12.9856 0 29.0022C0 45.0187 12.5722 58.0043 28.0789 58.0043C43.5856 58.0043 56.1578 45.0187 56.1578 29.0022C56.1536 12.9856 43.5856 0 28.0789 0ZM48.5197 42.2519C48.5197 42.5593 48.5197 42.8278 48.5197 43.1352C48.1969 43.1352 47.8783 43.1352 47.5136 43.1352C47.5136 44.1744 47.5136 45.1703 47.5136 46.2008C43.5982 46.2008 39.7288 46.2008 35.8176 46.2008C35.8176 45.1876 35.8176 44.2047 35.8176 43.1612C35.4487 43.1612 35.1175 43.1612 34.7654 43.1612C34.7654 42.8538 34.7654 42.5983 34.7654 42.2865C35.0881 42.2692 35.4193 42.2519 35.7715 42.2302C35.7715 38.6753 35.7715 35.1334 35.7715 31.5482C35.4361 31.5482 35.1175 31.5482 34.7695 31.5482C34.7695 31.2408 34.7695 30.9766 34.7695 30.6649C35.1007 30.6649 35.4193 30.6649 35.7966 30.6649C35.7966 30.2449 35.7966 29.8682 35.7966 29.4958C35.8008 28.7121 36.241 28.2444 36.9998 28.2358C38.1945 28.2271 39.3893 28.2314 40.584 28.2314C40.7433 28.2314 40.9026 28.2314 41.1122 28.2314C41.1206 28.0452 41.1332 27.885 41.1332 27.7248C41.1332 26.1227 41.1332 24.525 41.1332 22.9229C41.1332 22.2258 40.9446 22.0136 40.2277 21.966C40.2151 21.7235 40.2067 21.4767 40.1942 21.1996C40.4247 21.1736 40.6218 21.1519 40.8565 21.1259C40.823 20.221 40.5044 19.4892 39.8211 18.948C38.9239 18.2335 37.8424 18.0603 36.7608 17.8915C34.757 17.5754 32.7489 17.2766 30.808 16.6228C28.7455 15.93 27.1189 14.6526 26.0373 12.7215C25.3331 11.4614 24.7378 10.1365 24.1299 8.82016C23.7484 7.99313 23.1951 7.39127 22.3399 7.10982C20.9732 6.6595 18.437 7.54281 18.3112 10.0196C18.2358 11.4441 18.2777 12.8817 18.3532 14.3106C18.4328 15.8347 19.1748 17.0168 20.3821 17.8785C20.9271 18.2682 21.5056 18.6016 22.059 18.9783C23.4131 19.9006 24.2012 21.1433 24.0209 22.8839C23.9035 23.9924 23.3208 24.8367 22.4866 25.5035C22.2602 25.6854 22.1387 25.8673 22.1345 26.179C22.1261 26.9238 22.0674 27.6685 22.059 28.4176C22.059 28.5432 22.1848 28.7467 22.298 28.79C24.7755 29.7686 25.6265 30.3531 27.3746 32.3276C27.9657 31.9769 28.5652 31.6131 29.1647 31.2624C29.6132 31.0026 29.9905 31.0719 30.2001 31.4399C30.4139 31.8167 30.2882 32.1674 29.827 32.4488C29.2569 32.7996 28.6826 33.1373 28.1166 33.4794C28.3179 34.1115 28.5694 34.7134 28.6993 35.3412C29.282 38.0691 28.5442 40.4809 26.9764 42.6719C26.662 43.1136 26.3937 43.5509 26.226 44.0878C25.8277 45.3781 24.6791 46.2268 23.3376 46.2311C19.4725 46.2441 15.6073 46.2485 11.7422 46.2311C10.2917 46.2225 9.14304 45.2309 8.75736 43.7717C8.69029 43.5206 8.55614 43.2694 8.39684 43.0616C6.89606 41.1088 6.00313 38.9308 6.24209 36.4021C6.33431 35.4235 6.66549 34.4666 6.90444 33.4361C6.39719 33.133 5.78514 32.7779 5.18148 32.4055C4.90899 32.2367 4.70357 31.9639 4.83353 31.6478C4.92576 31.427 5.15632 31.2191 5.37431 31.1282C5.52104 31.0676 5.77257 31.1801 5.94444 31.2797C6.53973 31.6131 7.11824 31.9725 7.71352 32.3276C8.06566 31.9466 8.38846 31.5525 8.75317 31.2018C9.86409 30.1193 11.1762 29.3745 12.6183 28.8853C12.9537 28.7727 13.0962 28.6471 13.0585 28.2574C12.9956 27.5776 12.9746 26.8891 12.9705 26.205C12.9663 25.9062 12.8782 25.7157 12.6393 25.5252C11.8344 24.8844 11.2475 24.0703 11.1008 23.0052C10.866 21.3338 11.5661 20.0781 12.8447 19.1298C13.419 18.7055 14.0436 18.3591 14.6305 17.9521C16.1271 16.9259 16.8063 15.4493 16.8146 13.6178C16.823 12.3318 16.7853 11.0371 16.8524 9.75543C16.9572 7.6424 18.8227 5.77619 20.8559 5.53804C22.4321 5.35618 23.7442 5.77185 24.7713 7.01889C25.0815 7.3956 25.3037 7.85457 25.5175 8.30056C26.008 9.30511 26.444 10.3356 26.9428 11.3315C28.0412 13.5138 29.7683 14.8951 32.0908 15.419C33.8263 15.8087 35.5912 16.0772 37.3309 16.4452C38.161 16.6228 39.0036 16.8263 39.7791 17.164C41.2087 17.7875 42.0806 18.9436 42.307 20.5414C42.3783 21.0437 42.4705 21.3338 43.0532 21.1303C43.0532 21.442 43.0532 21.6888 43.0532 21.9356C42.219 22.1218 42.1519 22.2084 42.1519 23.1437C42.1519 24.8194 42.1519 26.4951 42.1519 28.2444C42.328 28.2444 42.4831 28.2444 42.6382 28.2444C43.8204 28.2444 44.9984 28.2401 46.1805 28.2444C47.0693 28.2488 47.4843 28.6731 47.4843 29.5781C47.4843 29.9115 47.4843 30.2449 47.4843 30.6346C47.8322 30.6519 48.1634 30.6692 48.5155 30.6909C48.5155 30.9723 48.5155 31.2364 48.5155 31.5439C48.1802 31.5439 47.8616 31.5439 47.5136 31.5439C47.5136 35.1291 47.5136 38.671 47.5136 42.2562C47.8532 42.2519 48.1718 42.2519 48.5197 42.2519Z" fill="black"/>
<path d="M68.818 43.1872H68.2185V36.3718H64.1982V43.1872H63.5988V35.8479H68.818V43.1872Z" fill="black"/>
<path d="M74.7498 40.5156C74.7498 41.3642 74.5696 42.0397 74.2049 42.5377C73.8402 43.0356 73.3539 43.2868 72.7418 43.2868C72.0208 43.2868 71.4674 43.0226 71.0817 42.4987V45.2785H70.499V37.7314H71.0398L71.0692 38.5021C71.4506 37.9219 71.9998 37.6318 72.725 37.6318C73.3581 37.6318 73.8527 37.8786 74.2091 38.3722C74.5654 38.8658 74.7498 39.55 74.7498 40.429V40.5156ZM74.163 40.4073C74.163 39.7102 74.0246 39.1603 73.7479 38.7576C73.4712 38.3549 73.0856 38.1514 72.5909 38.1514C72.2346 38.1514 71.9244 38.2423 71.6686 38.4199C71.4129 38.5974 71.2159 38.8572 71.0775 39.1949V41.8102C71.2159 42.122 71.4171 42.3601 71.677 42.5247C71.9369 42.6892 72.2429 42.7715 72.5993 42.7715C73.0898 42.7715 73.4754 42.568 73.7479 42.1653C74.0204 41.7626 74.163 41.1781 74.163 40.4073Z" fill="black"/>
<path d="M75.7224 40.377C75.7224 39.8531 75.8188 39.3811 76.0159 38.9611C76.2129 38.5411 76.4896 38.2164 76.8501 37.9825C77.2106 37.7487 77.6172 37.6318 78.0742 37.6318C78.7785 37.6318 79.3444 37.8873 79.7804 38.3939C80.2164 38.9048 80.4343 39.576 80.4343 40.416V40.5415C80.4343 41.0698 80.3379 41.5418 80.1409 41.9661C79.9439 42.3861 79.6672 42.7109 79.3109 42.9404C78.9545 43.1698 78.5437 43.2824 78.0868 43.2824C77.3867 43.2824 76.8207 43.027 76.3806 42.5203C75.9446 42.0094 75.7224 41.3383 75.7224 40.4982V40.377ZM76.3051 40.5459C76.3051 41.1997 76.4686 41.7323 76.7956 42.1523C77.1226 42.5723 77.5502 42.7801 78.0826 42.7801C78.6108 42.7801 79.0384 42.5723 79.3654 42.1523C79.6923 41.7323 79.8558 41.1824 79.8558 40.4982V40.3813C79.8558 39.9657 79.7804 39.5846 79.6295 39.2382C79.4785 38.8918 79.2689 38.6234 79.0006 38.4329C78.7323 38.2423 78.4221 38.1471 78.0742 38.1471C77.5544 38.1471 77.131 38.3592 76.7998 38.7792C76.4728 39.1993 76.3051 39.7535 76.3051 40.4333V40.5459Z" fill="black"/>
<path d="M85.1086 37.7314H85.6955V43.1828H85.1086V38.7056L82.258 43.1872H81.6794V37.7314H82.258V42.2172L85.1086 37.7314Z" fill="black"/>
<path d="M90.3488 39.1733C90.3488 38.8442 90.2314 38.5887 89.9925 38.4112C89.7535 38.2337 89.4265 38.1427 89.0115 38.1427C88.6342 38.1427 88.3114 38.2423 88.0431 38.4415C87.7748 38.6407 87.6407 38.8962 87.6407 39.1993H87.0622C87.0622 38.7446 87.2508 38.3722 87.6239 38.0735C88.0012 37.779 88.4623 37.6318 89.0115 37.6318C89.6152 37.6318 90.0889 37.766 90.4284 38.0345C90.768 38.3029 90.9357 38.684 90.9357 39.1776C90.9357 39.4417 90.856 39.6756 90.7009 39.8877C90.5458 40.0999 90.3152 40.2644 90.0176 40.3813C90.6925 40.5719 91.0321 41.0049 91.0321 41.6803C91.0321 42.1696 90.8476 42.5593 90.4787 42.8451C90.1098 43.1309 89.6235 43.2738 89.0157 43.2738C88.4288 43.2738 87.9383 43.1222 87.5526 42.8148C87.167 42.5073 86.9741 42.109 86.9741 41.6154H87.561C87.561 41.9445 87.7036 42.2172 87.9844 42.4381C88.2653 42.6589 88.6132 42.7671 89.0199 42.7671C89.4642 42.7671 89.8164 42.6719 90.0679 42.477C90.3194 42.2822 90.4452 42.0224 90.4452 41.689C90.4452 41.3209 90.3278 41.0568 90.0973 40.8966C89.8667 40.7364 89.5145 40.6541 89.0366 40.6541H88.2318V40.1302H89.1331C89.9421 40.1215 90.3488 39.8011 90.3488 39.1733Z" fill="black"/>
<path d="M92.3778 43.1872V37.7314H94.3146C94.9853 37.7314 95.4967 37.857 95.8573 38.1038C96.2178 38.3506 96.3939 38.7143 96.3939 39.1906C96.3939 39.4634 96.3142 39.7059 96.1549 39.918C95.9956 40.1302 95.765 40.2861 95.459 40.3857C95.8028 40.4549 96.0794 40.6065 96.2891 40.8446C96.4987 41.0828 96.6035 41.3599 96.6035 41.676C96.6035 42.1566 96.4316 42.529 96.0878 42.7931C95.7441 43.0573 95.2578 43.1872 94.6332 43.1872H92.3778ZM92.9605 40.1735H94.4403C95.3584 40.1605 95.8153 39.8358 95.8153 39.2079C95.8153 38.8745 95.6896 38.632 95.4381 38.4805C95.1865 38.3289 94.8134 38.251 94.3188 38.251H92.9605V40.1735ZM92.9605 40.6758V42.6805H94.6541C95.0943 42.6805 95.4297 42.5939 95.6686 42.4207C95.9076 42.2476 96.0249 41.9921 96.0249 41.663C96.0249 41.3599 95.9076 41.1218 95.6686 40.9442C95.4297 40.7667 95.0943 40.6758 94.6541 40.6758H92.9605Z" fill="black"/>
<path d="M97.5802 40.377C97.5802 39.8531 97.6766 39.3811 97.8736 38.9611C98.0707 38.5411 98.3474 38.2164 98.7079 37.9825C99.0684 37.7487 99.475 37.6318 99.932 37.6318C100.636 37.6318 101.202 37.8873 101.638 38.3939C102.074 38.9048 102.292 39.576 102.292 40.416V40.5415C102.292 41.0698 102.196 41.5418 101.999 41.9661C101.802 42.3861 101.525 42.7109 101.169 42.9404C100.812 43.1698 100.402 43.2824 99.9446 43.2824C99.2445 43.2824 98.6785 43.027 98.2384 42.5203C97.8024 42.0094 97.5802 41.3383 97.5802 40.4982V40.377ZM98.1671 40.5459C98.1671 41.1997 98.3306 41.7323 98.6576 42.1523C98.9846 42.5723 99.4122 42.7801 99.9446 42.7801C100.473 42.7801 100.9 42.5723 101.227 42.1523C101.554 41.7323 101.718 41.1824 101.718 40.4982V40.3813C101.718 39.9657 101.642 39.5846 101.491 39.2382C101.341 38.8918 101.131 38.6234 100.863 38.4329C100.594 38.2423 100.284 38.1471 99.9362 38.1471C99.4164 38.1471 98.993 38.3592 98.6618 38.7792C98.3348 39.1993 98.1671 39.7535 98.1671 40.4333V40.5459Z" fill="black"/>
<path d="M103.026 42.6762L103.286 42.3298C103.697 41.7539 103.931 40.9139 103.994 39.8098L104.086 37.7314H107.205V42.6762H107.75V44.7893H107.172V43.1872H103.206V44.7893H102.644L102.648 42.6762H103.026ZM103.697 42.6762H106.614V38.2986H104.64L104.577 39.7145C104.518 41.0135 104.225 42.0007 103.697 42.6762Z" fill="black"/>
<path d="M110.827 42.7758C111.234 42.7758 111.574 42.6589 111.85 42.4208C112.127 42.1826 112.274 41.8752 112.295 41.5028H112.856C112.84 41.8362 112.739 42.1393 112.555 42.4121C112.37 42.6849 112.123 42.9014 111.817 43.0529C111.511 43.2045 111.18 43.2868 110.827 43.2868C110.136 43.2868 109.587 43.0399 109.18 42.542C108.773 42.044 108.572 41.3772 108.572 40.5372V40.3554C108.572 39.8184 108.664 39.3421 108.845 38.9308C109.025 38.5194 109.289 38.199 109.628 37.9739C109.968 37.7487 110.366 37.6361 110.823 37.6361C111.402 37.6361 111.88 37.8137 112.257 38.1687C112.634 38.5238 112.835 38.9957 112.861 39.576H112.299C112.274 39.1473 112.123 38.8052 111.854 38.5411C111.582 38.2813 111.242 38.1471 110.827 38.1471C110.299 38.1471 109.893 38.3419 109.599 38.7359C109.306 39.13 109.163 39.6799 109.163 40.39V40.5675C109.163 41.2647 109.31 41.8059 109.599 42.1956C109.884 42.5853 110.295 42.7758 110.827 42.7758Z" fill="black"/>
<path d="M117.816 38.2467H115.891V43.1872H115.305V38.2467H113.456V37.7314H117.811V38.2467H117.816Z" fill="black"/>
<path d="M118.834 43.1872V37.7314H120.771C121.442 37.7314 121.953 37.857 122.314 38.1038C122.674 38.3506 122.85 38.7143 122.85 39.1906C122.85 39.4634 122.771 39.7059 122.611 39.918C122.452 40.1302 122.222 40.2861 121.916 40.3857C122.259 40.4549 122.536 40.6065 122.746 40.8446C122.955 41.0828 123.06 41.3599 123.06 41.676C123.06 42.1566 122.888 42.529 122.544 42.7931C122.201 43.0573 121.714 43.1872 121.09 43.1872H118.834ZM119.413 40.1735H120.893C121.811 40.1605 122.268 39.8358 122.268 39.2079C122.268 38.8745 122.142 38.632 121.89 38.4805C121.639 38.3289 121.266 38.251 120.771 38.251H119.413V40.1735ZM119.413 40.6758V42.6805H121.106C121.547 42.6805 121.882 42.5939 122.121 42.4207C122.36 42.2476 122.477 41.9921 122.477 41.663C122.477 41.3599 122.36 41.1218 122.121 40.9442C121.882 40.7667 121.547 40.6758 121.106 40.6758H119.413Z" fill="black"/>
<path d="M124.037 40.377C124.037 39.8531 124.133 39.3811 124.33 38.9611C124.527 38.5411 124.804 38.2164 125.164 37.9825C125.525 37.7487 125.932 37.6318 126.389 37.6318C127.093 37.6318 127.659 37.8873 128.095 38.3939C128.531 38.9048 128.749 39.576 128.749 40.416V40.5415C128.749 41.0698 128.652 41.5418 128.455 41.9661C128.258 42.3861 127.982 42.7109 127.625 42.9404C127.269 43.1698 126.858 43.2824 126.401 43.2824C125.701 43.2824 125.135 43.027 124.695 42.5203C124.259 42.0094 124.037 41.3383 124.037 40.4982V40.377ZM124.619 40.5459C124.619 41.1997 124.783 41.7323 125.11 42.1523C125.437 42.5723 125.865 42.7801 126.397 42.7801C126.925 42.7801 127.353 42.5723 127.68 42.1523C128.007 41.7323 128.17 41.1824 128.17 40.4982V40.3813C128.17 39.9657 128.095 39.5846 127.944 39.2382C127.793 38.8918 127.583 38.6234 127.315 38.4329C127.047 38.2423 126.736 38.1471 126.389 38.1471C125.869 38.1471 125.445 38.3592 125.114 38.7792C124.787 39.1993 124.619 39.7535 124.619 40.4333V40.5459Z" fill="black"/>
<path d="M135.854 37.7314H136.441V43.1828H135.854V38.7056L133.004 43.1872H132.425V37.7314H133.004V42.2172L135.854 37.7314Z" fill="black"/>
<path d="M144.486 43.1872H143.899V38.2553H141.053V43.1828H140.466V37.7314H144.482V43.1872H144.486Z" fill="black"/>
<path d="M150.292 40.5156C150.292 41.3642 150.112 42.0397 149.747 42.5377C149.382 43.0356 148.896 43.2868 148.284 43.2868C147.563 43.2868 147.01 43.0226 146.624 42.4987V45.2785H146.041V37.7314H146.582L146.611 38.5021C146.993 37.9219 147.542 37.6318 148.267 37.6318C148.9 37.6318 149.395 37.8786 149.751 38.3722C150.108 38.8658 150.292 39.55 150.292 40.429V40.5156ZM149.705 40.4073C149.705 39.7102 149.567 39.1603 149.29 38.7576C149.013 38.3549 148.628 38.1514 148.133 38.1514C147.777 38.1514 147.467 38.2423 147.211 38.4199C146.955 38.5974 146.758 38.8572 146.62 39.1949V41.8102C146.758 42.122 146.959 42.3601 147.219 42.5247C147.479 42.6892 147.785 42.7715 148.142 42.7715C148.632 42.7715 149.018 42.568 149.29 42.1653C149.563 41.7626 149.705 41.1781 149.705 40.4073Z" fill="black"/>
<path d="M151.26 40.377C151.26 39.8531 151.357 39.3811 151.554 38.9611C151.751 38.5411 152.028 38.2164 152.388 37.9825C152.749 37.7487 153.155 37.6318 153.612 37.6318C154.317 37.6318 154.882 37.8873 155.318 38.3939C155.754 38.9048 155.972 39.576 155.972 40.416V40.5415C155.972 41.0698 155.876 41.5418 155.679 41.9661C155.482 42.3861 155.205 42.7109 154.849 42.9404C154.493 43.1698 154.082 43.2824 153.625 43.2824C152.925 43.2824 152.359 43.027 151.919 42.5203C151.483 42.0094 151.26 41.3383 151.26 40.4982V40.377ZM151.847 40.5459C151.847 41.1997 152.011 41.7323 152.338 42.1523C152.665 42.5723 153.092 42.7801 153.625 42.7801C154.153 42.7801 154.581 42.5723 154.908 42.1523C155.235 41.7323 155.398 41.1824 155.398 40.4982V40.3813C155.398 39.9657 155.323 39.5846 155.172 39.2382C155.021 38.8918 154.811 38.6234 154.543 38.4329C154.275 38.2423 153.964 38.1471 153.616 38.1471C153.097 38.1471 152.673 38.3592 152.342 38.7792C152.015 39.1993 151.847 39.7535 151.847 40.4333V40.5459Z" fill="black"/>
<path d="M156.706 42.6762L156.966 42.3298C157.377 41.7539 157.612 40.9139 157.674 39.8098L157.767 37.7314H160.886V42.6762H161.431V44.7893H160.852V43.1872H156.886V44.7893H156.325L156.329 42.6762H156.706ZM157.381 42.6762H160.299V38.2986H158.324L158.261 39.7145C158.198 41.0135 157.909 42.0007 157.381 42.6762Z" fill="black"/>
<path d="M165.891 43.1872C165.832 43.014 165.795 42.7628 165.778 42.4251C165.572 42.7022 165.313 42.9144 164.994 43.0616C164.675 43.2131 164.34 43.2868 163.988 43.2868C163.481 43.2868 163.07 43.1395 162.755 42.8494C162.441 42.555 162.286 42.1869 162.286 41.741C162.286 41.2084 162.5 40.7884 162.927 40.4809C163.355 40.1735 163.95 40.0176 164.717 40.0176H165.778V39.3984C165.778 39.0087 165.66 38.7013 165.43 38.4805C165.199 38.2553 164.86 38.1471 164.411 38.1471C164.005 38.1471 163.669 38.2553 163.401 38.4718C163.133 38.6883 163.003 38.9438 163.003 39.2469L162.416 39.2426C162.416 38.8096 162.609 38.4329 163.003 38.1168C163.392 37.8007 163.875 37.6405 164.441 37.6405C165.027 37.6405 165.493 37.792 165.832 38.0951C166.172 38.3982 166.348 38.8226 166.356 39.3681V41.9488C166.356 42.477 166.411 42.8711 166.516 43.1352V43.1958H165.891V43.1872ZM164.055 42.7542C164.445 42.7542 164.793 42.6546 165.103 42.4597C165.409 42.2649 165.635 42.0051 165.774 41.6803V40.4809H164.73C164.147 40.4896 163.69 40.5978 163.363 40.81C163.036 41.0222 162.868 41.3166 162.868 41.689C162.868 41.9964 162.977 42.2476 163.2 42.4511C163.418 42.6502 163.703 42.7542 164.055 42.7542Z" fill="black"/>
<path d="M171.944 40.6671H171.24V43.1872H170.653V40.6671H169.957L168.004 43.1872H167.266L169.45 40.39L167.509 37.7357H168.218L169.949 40.1302H170.657V37.7357H171.244V40.1302H171.957L173.688 37.7357H174.405L172.452 40.39L174.644 43.1872H173.898L171.944 40.6671Z" fill="black"/>
<path d="M178.908 43.1872C178.849 43.014 178.811 42.7628 178.794 42.4251C178.589 42.7022 178.329 42.9144 178.01 43.0616C177.692 43.2131 177.356 43.2868 177.004 43.2868C176.497 43.2868 176.086 43.1395 175.772 42.8494C175.457 42.555 175.302 42.1869 175.302 41.741C175.302 41.2084 175.516 40.7884 175.944 40.4809C176.371 40.1735 176.967 40.0176 177.734 40.0176H178.794V39.3984C178.794 39.0087 178.677 38.7013 178.446 38.4805C178.216 38.2553 177.876 38.1471 177.428 38.1471C177.021 38.1471 176.686 38.2553 176.417 38.4718C176.149 38.6883 176.019 38.9438 176.019 39.2469L175.432 39.2426C175.432 38.8096 175.625 38.4329 176.019 38.1168C176.409 37.8007 176.891 37.6405 177.457 37.6405C178.044 37.6405 178.509 37.792 178.849 38.0951C179.188 38.3982 179.365 38.8226 179.373 39.3681V41.9488C179.373 42.477 179.427 42.8711 179.532 43.1352V43.1958H178.908V43.1872ZM177.071 42.7542C177.461 42.7542 177.809 42.6546 178.119 42.4597C178.425 42.2649 178.652 42.0051 178.79 41.6803V40.4809H177.746C177.164 40.4896 176.707 40.5978 176.38 40.81C176.053 41.0222 175.885 41.3166 175.885 41.689C175.885 41.9964 175.994 42.2476 176.216 42.4511C176.438 42.6502 176.723 42.7542 177.071 42.7542Z" fill="black"/>
<path d="M65.3846 55.1639C65.7913 55.1639 66.1308 55.047 66.4075 54.8088C66.6842 54.5707 66.8309 54.2632 66.8519 53.8909H67.4136C67.3969 54.2243 67.2962 54.5274 67.1118 54.8001C66.9273 55.0729 66.68 55.2894 66.374 55.441C66.068 55.5969 65.7368 55.6748 65.3846 55.6748C64.6929 55.6748 64.1438 55.428 63.7371 54.93C63.3305 54.4321 63.1293 53.7653 63.1293 52.9253V52.7434C63.1293 52.2065 63.2215 51.7302 63.4018 51.3188C63.582 50.9075 63.8461 50.5871 64.1857 50.3619C64.5253 50.1368 64.9235 50.0242 65.3804 50.0242C65.959 50.0242 66.4369 50.2017 66.8142 50.5568C67.1914 50.9118 67.3927 51.3838 67.4178 51.964H66.8561C66.8309 51.5353 66.68 51.1933 66.4117 50.9292C66.1392 50.6694 65.7997 50.5351 65.3846 50.5351C64.8564 50.5351 64.4498 50.73 64.1563 51.124C63.8629 51.518 63.7204 52.0679 63.7204 52.778V52.9556C63.7204 53.6527 63.8671 54.194 64.1563 54.5836C64.4456 54.969 64.8564 55.1639 65.3846 55.1639Z" fill="black"/>
<path d="M71.916 55.5709C71.8573 55.3977 71.8196 55.1465 71.8028 54.8088C71.5974 55.0859 71.3375 55.2981 71.0189 55.4453C70.7003 55.5969 70.3649 55.6705 70.0128 55.6705C69.5055 55.6705 69.0947 55.5232 68.7803 55.2331C68.4659 54.9387 68.3108 54.5707 68.3108 54.1247C68.3108 53.5921 68.5246 53.1721 68.9522 52.8646C69.3798 52.5572 69.9751 52.4013 70.7422 52.4013H71.8028V51.7822C71.8028 51.3925 71.6855 51.085 71.4549 50.8642C71.2243 50.639 70.8848 50.5308 70.4362 50.5308C70.0296 50.5308 69.6942 50.639 69.4259 50.8555C69.1576 51.072 69.0276 51.3275 69.0276 51.6306L68.4407 51.6263C68.4407 51.1933 68.6336 50.8166 69.0276 50.5005C69.4175 50.1844 69.8996 50.0242 70.4655 50.0242C71.0524 50.0242 71.5178 50.1757 71.8573 50.4788C72.1969 50.7819 72.373 51.2063 72.3813 51.7518V54.3325C72.3813 54.8608 72.4358 55.2548 72.5406 55.5189V55.5795H71.916V55.5709ZM70.0799 55.1379C70.4697 55.1379 70.8177 55.0383 71.1279 54.8434C71.4339 54.6486 71.6603 54.3888 71.7986 54.064V52.8646H70.7548C70.1721 52.8733 69.7152 52.9816 69.3882 53.1937C69.0612 53.4059 68.8935 53.7003 68.8935 54.0727C68.8935 54.3801 69.0025 54.6313 69.2247 54.8348C69.4427 55.0383 69.7277 55.1379 70.0799 55.1379Z" fill="black"/>
<path d="M76.8585 54.7569L78.9545 50.1194H79.6756V55.5709H79.0887V51.0937L77.0597 55.5709H76.6447L74.5779 50.9941V55.5709H73.9952V50.1194H74.7624L76.8585 54.7569Z" fill="black"/>
<path d="M80.9165 52.7651C80.9165 52.2411 81.0129 51.7692 81.21 51.3492C81.407 50.9291 81.6837 50.6044 82.0442 50.3706C82.4047 50.1368 82.8113 50.0199 83.2683 50.0199C83.9726 50.0199 84.5385 50.2753 84.9745 50.7819C85.4105 51.2929 85.6285 51.964 85.6285 52.804V52.9296C85.6285 53.4579 85.532 53.9298 85.335 54.3542C85.138 54.7742 84.8613 55.0989 84.505 55.3284C84.1486 55.5579 83.7378 55.6705 83.2809 55.6705C82.5808 55.6705 82.0148 55.415 81.5747 54.9084C81.1387 54.3975 80.9165 53.7263 80.9165 52.8863V52.7651ZM81.5034 52.9296C81.5034 53.5834 81.6669 54.116 81.9939 54.536C82.3209 54.956 82.7485 55.1639 83.2809 55.1639C83.8091 55.1639 84.2367 54.956 84.5637 54.536C84.8906 54.116 85.0541 53.5661 85.0541 52.882V52.7651C85.0541 52.3494 84.9787 51.9683 84.8278 51.6219C84.6768 51.2755 84.4672 51.0071 84.1989 50.8166C83.9306 50.6261 83.6204 50.5308 83.2725 50.5308C82.7527 50.5308 82.3293 50.743 81.9981 51.163C81.6711 51.583 81.5034 52.1372 81.5034 52.817V52.9296Z" fill="black"/>
<path d="M90.1224 50.6434H87.452V55.5709H86.8651V50.1194H90.1182V50.6434H90.1224Z" fill="black"/>
<path d="M90.6255 52.7651C90.6255 52.2411 90.7219 51.7692 90.9189 51.3492C91.116 50.9291 91.3927 50.6044 91.7532 50.3706C92.1137 50.1368 92.5203 50.0199 92.9773 50.0199C93.6816 50.0199 94.2475 50.2753 94.6835 50.7819C95.1195 51.2929 95.3375 51.964 95.3375 52.804V52.9296C95.3375 53.4579 95.241 53.9298 95.044 54.3542C94.847 54.7742 94.5703 55.0989 94.214 55.3284C93.8576 55.5579 93.4468 55.6705 92.9899 55.6705C92.2898 55.6705 91.7238 55.415 91.2837 54.9084C90.8477 54.3975 90.6255 53.7263 90.6255 52.8863V52.7651ZM91.2124 52.9296C91.2124 53.5834 91.3759 54.116 91.7029 54.536C92.0299 54.956 92.4575 55.1639 92.9899 55.1639C93.5181 55.1639 93.9457 54.956 94.2727 54.536C94.5996 54.116 94.7631 53.5661 94.7631 52.882V52.7651C94.7631 52.3494 94.6877 51.9683 94.5368 51.6219C94.3858 51.2755 94.1762 51.0071 93.9079 50.8166C93.6396 50.6261 93.3294 50.5308 92.9815 50.5308C92.4617 50.5308 92.0382 50.743 91.7071 51.163C91.3801 51.583 91.2124 52.1372 91.2124 52.817V52.9296Z" fill="black"/>
<path d="M100.599 55.5709H100.012V53.0725H97.1651V55.5709H96.5782V50.1194H97.1651V52.5659H100.012V50.1194H100.599V55.5709Z" fill="black"/>
<path d="M106.216 55.5709H105.629V53.0725H102.783V55.5709H102.196V50.1194H102.783V52.5659H105.629V50.1194H106.216V55.5709Z" fill="black"/>
<path d="M107.457 52.7651C107.457 52.2411 107.553 51.7692 107.75 51.3492C107.947 50.9291 108.224 50.6044 108.585 50.3706C108.945 50.1368 109.352 50.0199 109.809 50.0199C110.513 50.0199 111.079 50.2753 111.515 50.7819C111.951 51.2929 112.169 51.964 112.169 52.804V52.9296C112.169 53.4579 112.072 53.9298 111.875 54.3542C111.678 54.7742 111.402 55.0989 111.045 55.3284C110.689 55.5579 110.278 55.6705 109.821 55.6705C109.121 55.6705 108.555 55.415 108.115 54.9084C107.679 54.3975 107.457 53.7263 107.457 52.8863V52.7651ZM108.04 52.9296C108.04 53.5834 108.203 54.116 108.53 54.536C108.857 54.956 109.285 55.1639 109.817 55.1639C110.345 55.1639 110.773 54.956 111.1 54.536C111.427 54.116 111.59 53.5661 111.59 52.882V52.7651C111.59 52.3494 111.515 51.9683 111.364 51.6219C111.213 51.2755 111.003 51.0071 110.735 50.8166C110.467 50.6261 110.157 50.5308 109.809 50.5308C109.289 50.5308 108.865 50.743 108.534 51.163C108.207 51.583 108.04 52.1372 108.04 52.817V52.9296Z" fill="black"/>
<path d="M116.663 50.6434H113.992V55.5709H113.406V50.1194H116.659V50.6434H116.663Z" fill="black"/>
<path d="M117.166 52.7651C117.166 52.2411 117.262 51.7692 117.459 51.3492C117.656 50.9291 117.933 50.6044 118.294 50.3706C118.654 50.1368 119.061 50.0199 119.518 50.0199C120.222 50.0199 120.788 50.2753 121.224 50.7819C121.66 51.2929 121.878 51.964 121.878 52.804V52.9296C121.878 53.4579 121.781 53.9298 121.584 54.3542C121.387 54.7742 121.111 55.0989 120.754 55.3284C120.398 55.5579 119.987 55.6705 119.53 55.6705C118.83 55.6705 118.264 55.415 117.824 54.9084C117.388 54.3975 117.166 53.7263 117.166 52.8863V52.7651ZM117.753 52.9296C117.753 53.5834 117.916 54.116 118.243 54.536C118.57 54.956 118.998 55.1639 119.53 55.1639C120.058 55.1639 120.486 54.956 120.813 54.536C121.14 54.116 121.304 53.5661 121.304 52.882V52.7651C121.304 52.3494 121.228 51.9683 121.077 51.6219C120.926 51.2755 120.717 51.0071 120.448 50.8166C120.18 50.6261 119.87 50.5308 119.522 50.5308C119.002 50.5308 118.579 50.743 118.247 51.163C117.92 51.583 117.753 52.1372 117.753 52.817V52.9296Z" fill="black"/>
<path d="M125.194 52.7651C125.194 52.2411 125.29 51.7692 125.487 51.3492C125.684 50.9291 125.961 50.6044 126.322 50.3706C126.682 50.1368 127.089 50.0199 127.546 50.0199C128.25 50.0199 128.816 50.2753 129.252 50.7819C129.688 51.2929 129.906 51.964 129.906 52.804V52.9296C129.906 53.4579 129.809 53.9298 129.612 54.3542C129.415 54.7742 129.139 55.0989 128.782 55.3284C128.426 55.5579 128.015 55.6705 127.558 55.6705C126.858 55.6705 126.292 55.415 125.852 54.9084C125.416 54.3975 125.194 53.7263 125.194 52.8863V52.7651ZM125.777 52.9296C125.777 53.5834 125.94 54.116 126.267 54.536C126.594 54.956 127.022 55.1639 127.554 55.1639C128.082 55.1639 128.51 54.956 128.837 54.536C129.164 54.116 129.327 53.5661 129.327 52.882V52.7651C129.327 52.3494 129.252 51.9683 129.101 51.6219C128.95 51.2755 128.74 51.0071 128.472 50.8166C128.204 50.6261 127.894 50.5308 127.546 50.5308C127.026 50.5308 126.602 50.743 126.271 51.163C125.944 51.583 125.777 52.1372 125.777 52.817V52.9296Z" fill="black"/>
<path d="M133.239 50.4832C133.909 50.4832 134.45 50.7083 134.869 51.163C135.284 51.6133 135.494 52.2151 135.494 52.9599V53.0898C135.494 53.5834 135.397 54.0294 135.209 54.4234C135.02 54.8175 134.743 55.1249 134.387 55.3457C134.031 55.5665 133.62 55.6748 133.159 55.6748C132.463 55.6748 131.901 55.4366 131.469 54.956C131.038 54.4754 130.824 53.8389 130.824 53.0378V52.5529C130.824 51.4228 131.033 50.5221 131.448 49.8467C131.863 49.1712 132.459 48.7685 133.226 48.6386C133.712 48.5563 134.052 48.4481 134.249 48.3095C134.446 48.171 134.542 47.9848 134.542 47.7466H135.045C135.045 48.0281 134.987 48.2619 134.873 48.4481C134.76 48.6343 134.588 48.7815 134.362 48.8941C134.136 49.0066 133.788 49.1019 133.318 49.1798C132.782 49.2664 132.35 49.5046 132.023 49.89C131.696 50.2753 131.482 50.7906 131.386 51.4358C131.595 51.1543 131.855 50.9248 132.17 50.7516C132.48 50.5698 132.836 50.4832 133.239 50.4832ZM131.407 52.9599V53.0855C131.407 53.7003 131.566 54.1983 131.889 54.5836C132.211 54.969 132.635 55.1595 133.159 55.1595C133.687 55.1595 134.11 54.9647 134.429 54.5793C134.748 54.1896 134.907 53.683 134.907 53.0508V52.9209C134.907 52.3537 134.743 51.8904 134.421 51.531C134.098 51.1716 133.674 50.9898 133.15 50.9898C132.626 50.9898 132.207 51.1716 131.889 51.5353C131.566 51.9034 131.407 52.3754 131.407 52.9599Z" fill="black"/>
<path d="M136.286 52.7651C136.286 52.2411 136.383 51.7692 136.58 51.3492C136.777 50.9291 137.053 50.6044 137.414 50.3706C137.774 50.1368 138.181 50.0199 138.638 50.0199C139.342 50.0199 139.908 50.2753 140.344 50.7819C140.78 51.2929 140.998 51.964 140.998 52.804V52.9296C140.998 53.4579 140.902 53.9298 140.705 54.3542C140.508 54.7742 140.231 55.0989 139.875 55.3284C139.518 55.5579 139.107 55.6705 138.65 55.6705C137.95 55.6705 137.384 55.415 136.944 54.9084C136.508 54.3975 136.286 53.7263 136.286 52.8863V52.7651ZM136.873 52.9296C136.873 53.5834 137.037 54.116 137.364 54.536C137.69 54.956 138.118 55.1639 138.65 55.1639C139.179 55.1639 139.606 54.956 139.933 54.536C140.26 54.116 140.424 53.5661 140.424 52.882V52.7651C140.424 52.3494 140.348 51.9683 140.197 51.6219C140.046 51.2755 139.837 51.0071 139.569 50.8166C139.3 50.6261 138.99 50.5308 138.642 50.5308C138.122 50.5308 137.699 50.743 137.368 51.163C137.041 51.583 136.873 52.1372 136.873 52.817V52.9296Z" fill="black"/>
<path d="M146.452 52.8993C146.452 53.748 146.272 54.4234 145.907 54.9214C145.542 55.4193 145.056 55.6705 144.444 55.6705C143.723 55.6705 143.17 55.4063 142.784 54.8824V57.6623H142.201V50.1108H142.742L142.771 50.8815C143.153 50.3013 143.702 50.0112 144.427 50.0112C145.06 50.0112 145.555 50.258 145.911 50.7516C146.268 51.2452 146.452 51.9294 146.452 52.8084V52.8993ZM145.865 52.7954C145.865 52.0982 145.727 51.5483 145.45 51.1457C145.174 50.743 144.788 50.5395 144.293 50.5395C143.937 50.5395 143.627 50.6304 143.371 50.8079C143.115 50.9854 142.918 51.2452 142.78 51.583V54.1983C142.918 54.51 143.119 54.7482 143.379 54.9127C143.639 55.0773 143.945 55.1595 144.302 55.1595C144.792 55.1595 145.178 54.956 145.45 54.5533C145.723 54.1507 145.865 53.5661 145.865 52.7954Z" fill="black"/>
<path d="M149.366 54.7049L150.908 50.1194H151.537L149.282 56.5018L149.164 56.7833C148.875 57.4458 148.427 57.7748 147.823 57.7748C147.685 57.7748 147.534 57.7532 147.374 57.7056L147.37 57.2076L147.672 57.2379C147.957 57.2379 148.192 57.1643 148.368 57.0171C148.544 56.8699 148.695 56.6187 148.821 56.2637L149.08 55.5276L147.089 50.1194H147.731L149.366 54.7049Z" fill="black"/>
<path d="M152.044 55.0643L152.304 54.7179C152.715 54.142 152.95 53.302 153.013 52.1978L153.105 50.1194H156.224V55.0643H156.769V57.1773H156.19V55.5752H152.225V57.1773H151.663L151.667 55.0643H152.044ZM152.715 55.0643H155.633V50.6867H153.658L153.596 52.1026C153.537 53.4016 153.243 54.3888 152.715 55.0643Z" fill="black"/>
<path d="M157.57 52.7651C157.57 52.2411 157.666 51.7692 157.863 51.3492C158.06 50.9291 158.337 50.6044 158.697 50.3706C159.058 50.1368 159.465 50.0199 159.921 50.0199C160.626 50.0199 161.192 50.2753 161.628 50.7819C162.064 51.2929 162.282 51.964 162.282 52.804V52.9296C162.282 53.4579 162.185 53.9298 161.988 54.3542C161.791 54.7742 161.514 55.0989 161.158 55.3284C160.802 55.5579 160.391 55.6705 159.934 55.6705C159.234 55.6705 158.668 55.415 158.228 54.9084C157.792 54.3975 157.57 53.7263 157.57 52.8863V52.7651ZM158.157 52.9296C158.157 53.5834 158.32 54.116 158.647 54.536C158.974 54.956 159.402 55.1639 159.934 55.1639C160.462 55.1639 160.89 54.956 161.217 54.536C161.544 54.116 161.707 53.5661 161.707 52.882V52.7651C161.707 52.3494 161.632 51.9683 161.481 51.6219C161.33 51.2755 161.12 51.0071 160.852 50.8166C160.584 50.6261 160.274 50.5308 159.926 50.5308C159.406 50.5308 158.982 50.743 158.651 51.163C158.324 51.583 158.157 52.1372 158.157 52.817V52.9296Z" fill="black"/>
<path d="M163.552 55.5709V50.1194H165.489C166.159 50.1194 166.671 50.245 167.031 50.4918C167.392 50.7386 167.568 51.1024 167.568 51.5786C167.568 51.8514 167.488 52.0939 167.329 52.3061C167.17 52.5183 166.939 52.6741 166.633 52.7737C166.977 52.843 167.253 52.9946 167.463 53.2327C167.673 53.4709 167.777 53.748 167.777 54.0641C167.777 54.5447 167.606 54.9171 167.262 55.1812C166.918 55.4453 166.432 55.5752 165.807 55.5752H163.552V55.5709ZM164.135 52.5572H165.614C166.532 52.5442 166.989 52.2195 166.989 51.5916C166.989 51.2582 166.864 51.0158 166.612 50.8642C166.361 50.7127 165.987 50.6347 165.493 50.6347H164.135V52.5572ZM164.135 53.0638V55.0686H165.828C166.268 55.0686 166.604 54.982 166.843 54.8088C167.082 54.6356 167.199 54.3801 167.199 54.0511C167.199 53.748 167.082 53.5098 166.843 53.3323C166.604 53.1548 166.268 53.0638 165.828 53.0638H164.135Z" fill="black"/>
<path d="M172.41 55.5709C172.351 55.3977 172.313 55.1465 172.297 54.8088C172.091 55.0859 171.831 55.2981 171.513 55.4453C171.194 55.5969 170.859 55.6705 170.507 55.6705C169.999 55.6705 169.588 55.5232 169.274 55.2331C168.96 54.9387 168.805 54.5707 168.805 54.1247C168.805 53.5921 169.018 53.1721 169.446 52.8646C169.874 52.5572 170.469 52.4013 171.236 52.4013H172.297V51.7822C172.297 51.3925 172.179 51.085 171.949 50.8642C171.718 50.639 171.379 50.5308 170.93 50.5308C170.523 50.5308 170.188 50.639 169.92 50.8555C169.651 51.072 169.521 51.3275 169.521 51.6306L168.935 51.6263C168.935 51.1933 169.127 50.8166 169.521 50.5005C169.911 50.1844 170.393 50.0242 170.959 50.0242C171.546 50.0242 172.012 50.1757 172.351 50.4788C172.691 50.7819 172.867 51.2063 172.875 51.7518V54.3325C172.875 54.8608 172.93 55.2548 173.034 55.5189V55.5795H172.41V55.5709ZM170.574 55.1379C170.964 55.1379 171.311 55.0383 171.622 54.8434C171.928 54.6486 172.154 54.3888 172.292 54.064V52.8646H171.249C170.666 52.8733 170.209 52.9816 169.882 53.1937C169.555 53.4059 169.387 53.7003 169.387 54.0727C169.387 54.3801 169.496 54.6313 169.718 54.8348C169.936 55.0383 170.222 55.1379 170.574 55.1379Z" fill="black"/>
<path d="M178.484 55.5709H177.897V53.0725H175.051V55.5709H174.464V50.1194H175.051V52.5659H177.897V50.1194H178.484V55.5709Z" fill="black"/>
<path d="M183.515 50.1194H184.102V55.5709H183.515V51.0937L180.664 55.5752H180.086V50.1238H180.664V54.6096L183.515 50.1194Z" fill="black"/>
<path d="M189.51 50.1194V55.5709H188.923V53.3756H187.284L185.997 55.5709H185.351L186.68 53.2976C186.319 53.2024 186.038 53.0119 185.837 52.7348C185.636 52.4576 185.535 52.1286 185.535 51.7475C185.535 51.2539 185.707 50.8599 186.051 50.5611C186.395 50.2667 186.86 50.1194 187.443 50.1194H189.51ZM186.126 51.7562C186.126 52.0766 186.223 52.3364 186.42 52.5442C186.617 52.7477 186.889 52.856 187.242 52.8603H188.927V50.6347H187.434C187.028 50.6347 186.709 50.7343 186.474 50.9378C186.24 51.137 186.126 51.4098 186.126 51.7562Z" fill="black"/>
<path d="M189.996 30.5653H62.9868V31.427H189.996V30.5653Z" fill="black"/>
</g>
<defs>
<clipPath id="clip0">
<rect width="190" height="58" fill="white"/>
</clipPath>
</defs>
</svg>
