<svg xmlns="http://www.w3.org/2000/svg" width="83" height="83" viewBox="0 0 83 83">
  <metadata><?xpacket begin="﻿" id="W5M0MpCehiHzreSzNTczkc9d"?>
<x:xmpmeta xmlns:x="adobe:ns:meta/" x:xmptk="Adobe XMP Core 5.6-c138 79.159824, 2016/09/14-01:09:01        ">
   <rdf:RDF xmlns:rdf="http://www.w3.org/1999/02/22-rdf-syntax-ns#">
      <rdf:Description rdf:about=""/>
   </rdf:RDF>
</x:xmpmeta>
                                                                                                    
                                                                                                    
                                                                                                    
                                                                                                    
                                                                                                    
                                                                                                    
                                                                                                    
                                                                                                    
                                                                                                    
                                                                                                    
                                                                                                    
                                                                                                    
                                                                                                    
                                                                                                    
                                                                                                    
                                                                                                    
                                                                                                    
                                                                                                    
                                                                                                    
                                                                                                    
                           
<?xpacket end="w"?></metadata>
<defs>
    <style>
      .cls-1 {
        fill: #f5c506;
        fill-rule: evenodd;
      }
    </style>
  </defs>
  <path id="Shape_8_copy_3" data-name="Shape 8 copy 3" class="cls-1" d="M139.992,83l13.08-13.5L139.992,56h11.1l13.082,13.5L151.087,83H139.992Zm16.839,0,13.081-13.5L156.831,56h11.1l13.081,13.5L167.927,83h-11.1Zm66.177,0-13.08-13.5L223.008,56H211.913L198.831,69.5,211.913,83h11.1Zm-16.839,0L193.088,69.5,206.169,56h-11.1L181.992,69.5,195.073,83h11.1ZM168,27.992l13.5,13.08L195,27.992v11.1L181.5,52.169,168,39.087v-11.1Zm0,16.839,13.5,13.08L195,44.831v11.1L181.5,69.008,168,55.927v-11.1Zm0,66.177,13.5-13.08L195,111.008v-11.1L181.5,86.831,168,99.913v11.1Zm0-16.839,13.5-13.08L195,94.169v-11.1L181.5,69.992,168,83.073v11.1Z" transform="translate(-140 -28)"/>
</svg>
