<svg xmlns="http://www.w3.org/2000/svg" width="78.625" height="78.625" viewBox="0 0 78.625 78.625">
  <metadata><?xpacket begin="﻿" id="W5M0MpCehiHzreSzNTczkc9d"?>
<x:xmpmeta xmlns:x="adobe:ns:meta/" x:xmptk="Adobe XMP Core 5.6-c138 79.159824, 2016/09/14-01:09:01        ">
   <rdf:RDF xmlns:rdf="http://www.w3.org/1999/02/22-rdf-syntax-ns#">
      <rdf:Description rdf:about=""/>
   </rdf:RDF>
</x:xmpmeta>
                                                                                                    
                                                                                                    
                                                                                                    
                                                                                                    
                                                                                                    
                                                                                                    
                                                                                                    
                                                                                                    
                                                                                                    
                                                                                                    
                                                                                                    
                                                                                                    
                                                                                                    
                                                                                                    
                                                                                                    
                                                                                                    
                                                                                                    
                                                                                                    
                                                                                                    
                                                                                                    
                           
<?xpacket end="w"?></metadata>
<defs>
    <style>
      .cls-1 {
        fill: #f5c506;
        fill-rule: evenodd;
        opacity: 0.5;
      }
    </style>
  </defs>
  <path id="Shape_8_copy_4" data-name="Shape 8 copy 4" class="cls-1" d="M142.174,50.287l18.78-.713-0.125-18.794,8.019,7.668,0.126,18.795-18.781.712Zm12.17,11.638,18.78-.713L173,42.418l8.019,7.668,0.126,18.795-18.781.712Zm47.827,45.737-0.126-18.794,18.781-.714-8.019-7.668-18.782.713,0.127,18.794ZM190,96.024L189.875,77.23l18.781-.714-8.019-7.669-18.782.713,0.127,18.794Zm10.433-66.129,0.713,18.78,18.794-.126-7.668,8.019-18.795.126-0.712-18.781ZM188.8,42.065l0.713,18.781L208.3,60.72l-7.668,8.019-18.795.126-0.713-18.781ZM143.059,89.892l18.793-.126,0.714,18.781,7.668-8.019-0.713-18.782-18.794.127ZM154.7,77.722L173.49,77.6,174.2,96.377l7.669-8.019-0.714-18.782-18.794.127Z" transform="translate(-142.188 -29.906)"/>
</svg>
